<mxfile host="Electron" modified="2024-01-19T07:49:34.711Z" agent="Mozilla/5.0 (Windows NT 10.0; Win64; x64) AppleWebKit/537.36 (KHTML, like Gecko) draw.io/22.1.18 Chrome/120.0.6099.199 Electron/28.1.2 Safari/537.36" etag="Nn07zlet8275DztJuGl3" version="22.1.18" type="device">
  <diagram id="C5RBs43oDa-KdzZeNtuy" name="Page-1">
    <mxGraphModel dx="1346" dy="1518" grid="1" gridSize="10" guides="1" tooltips="1" connect="1" arrows="1" fold="1" page="1" pageScale="1" pageWidth="827" pageHeight="1169" math="0" shadow="0">
      <root>
        <mxCell id="WIyWlLk6GJQsqaUBKTNV-0" />
        <mxCell id="WIyWlLk6GJQsqaUBKTNV-1" parent="WIyWlLk6GJQsqaUBKTNV-0" />
        <mxCell id="gWqf_zS7A-Yer8n9UJmJ-1" value="" style="ellipse;whiteSpace=wrap;html=1;aspect=fixed;" parent="WIyWlLk6GJQsqaUBKTNV-1" vertex="1">
          <mxGeometry x="20" y="50" width="260" height="260" as="geometry" />
        </mxCell>
        <mxCell id="gWqf_zS7A-Yer8n9UJmJ-2" value="HDD" style="text;html=1;strokeColor=none;fillColor=none;align=center;verticalAlign=middle;whiteSpace=wrap;rounded=0;fontSize=20;" parent="WIyWlLk6GJQsqaUBKTNV-1" vertex="1">
          <mxGeometry x="120" y="20" width="60" height="30" as="geometry" />
        </mxCell>
        <mxCell id="gWqf_zS7A-Yer8n9UJmJ-3" value="&lt;span style=&quot;font-size: 20px;&quot;&gt;CPU&lt;/span&gt;" style="whiteSpace=wrap;html=1;aspect=fixed;" parent="WIyWlLk6GJQsqaUBKTNV-1" vertex="1">
          <mxGeometry x="730" y="50" width="80" height="80" as="geometry" />
        </mxCell>
        <mxCell id="gWqf_zS7A-Yer8n9UJmJ-4" value="LOL" style="rounded=0;whiteSpace=wrap;html=1;" parent="WIyWlLk6GJQsqaUBKTNV-1" vertex="1">
          <mxGeometry x="40" y="70" width="100" height="60" as="geometry" />
        </mxCell>
        <mxCell id="gWqf_zS7A-Yer8n9UJmJ-5" value="블루아카이브" style="rounded=0;whiteSpace=wrap;html=1;" parent="WIyWlLk6GJQsqaUBKTNV-1" vertex="1">
          <mxGeometry x="160" y="70" width="100" height="60" as="geometry" />
        </mxCell>
        <mxCell id="gWqf_zS7A-Yer8n9UJmJ-6" value="리셀컴퍼니" style="rounded=0;whiteSpace=wrap;html=1;" parent="WIyWlLk6GJQsqaUBKTNV-1" vertex="1">
          <mxGeometry x="40" y="140" width="100" height="60" as="geometry" />
        </mxCell>
        <mxCell id="gWqf_zS7A-Yer8n9UJmJ-7" value="로스트아크" style="rounded=0;whiteSpace=wrap;html=1;" parent="WIyWlLk6GJQsqaUBKTNV-1" vertex="1">
          <mxGeometry x="160" y="140" width="100" height="60" as="geometry" />
        </mxCell>
        <mxCell id="gWqf_zS7A-Yer8n9UJmJ-8" value="메이플스토리" style="rounded=0;whiteSpace=wrap;html=1;" parent="WIyWlLk6GJQsqaUBKTNV-1" vertex="1">
          <mxGeometry x="160" y="210" width="100" height="60" as="geometry" />
        </mxCell>
        <mxCell id="gWqf_zS7A-Yer8n9UJmJ-9" value="WOW" style="rounded=0;whiteSpace=wrap;html=1;" parent="WIyWlLk6GJQsqaUBKTNV-1" vertex="1">
          <mxGeometry x="40" y="210" width="100" height="60" as="geometry" />
        </mxCell>
        <mxCell id="gWqf_zS7A-Yer8n9UJmJ-10" value="&lt;font style=&quot;font-size: 20px;&quot;&gt;병목현상 :&amp;nbsp;&lt;br&gt;연산속도에 비해서 메모리의 데이터 전송 속도가 너무 느려서 발생하는 성능 저하현상&lt;/font&gt;" style="text;html=1;strokeColor=none;fillColor=none;align=center;verticalAlign=middle;whiteSpace=wrap;rounded=0;" parent="WIyWlLk6GJQsqaUBKTNV-1" vertex="1">
          <mxGeometry x="169" y="-100" width="490" height="90" as="geometry" />
        </mxCell>
        <mxCell id="gWqf_zS7A-Yer8n9UJmJ-12" value="" style="rounded=0;whiteSpace=wrap;html=1;" parent="WIyWlLk6GJQsqaUBKTNV-1" vertex="1">
          <mxGeometry x="340" y="50" width="210" height="330" as="geometry" />
        </mxCell>
        <mxCell id="gWqf_zS7A-Yer8n9UJmJ-13" value="RAM" style="text;html=1;strokeColor=none;fillColor=none;align=center;verticalAlign=middle;whiteSpace=wrap;rounded=0;fontSize=20;" parent="WIyWlLk6GJQsqaUBKTNV-1" vertex="1">
          <mxGeometry x="340" y="20" width="60" height="30" as="geometry" />
        </mxCell>
        <mxCell id="gWqf_zS7A-Yer8n9UJmJ-14" value="블루아카이브" style="rounded=0;whiteSpace=wrap;html=1;" parent="WIyWlLk6GJQsqaUBKTNV-1" vertex="1">
          <mxGeometry x="350" y="60" width="190" height="150" as="geometry" />
        </mxCell>
        <mxCell id="gWqf_zS7A-Yer8n9UJmJ-15" value="실행한 프로그램의 인스턴스(Process)를 할당함." style="rounded=1;whiteSpace=wrap;html=1;" parent="WIyWlLk6GJQsqaUBKTNV-1" vertex="1">
          <mxGeometry x="340" y="390" width="210" height="120" as="geometry" />
        </mxCell>
        <mxCell id="gWqf_zS7A-Yer8n9UJmJ-16" value="" style="rounded=0;whiteSpace=wrap;html=1;" parent="WIyWlLk6GJQsqaUBKTNV-1" vertex="1">
          <mxGeometry x="40" y="585" width="230" height="95" as="geometry" />
        </mxCell>
        <mxCell id="gWqf_zS7A-Yer8n9UJmJ-17" value="Code" style="text;html=1;strokeColor=none;fillColor=none;align=center;verticalAlign=middle;whiteSpace=wrap;rounded=0;fontSize=20;" parent="WIyWlLk6GJQsqaUBKTNV-1" vertex="1">
          <mxGeometry x="280" y="608.75" width="80" height="47.5" as="geometry" />
        </mxCell>
        <mxCell id="gWqf_zS7A-Yer8n9UJmJ-18" value="" style="rounded=0;whiteSpace=wrap;html=1;" parent="WIyWlLk6GJQsqaUBKTNV-1" vertex="1">
          <mxGeometry x="40" y="690" width="230" height="95" as="geometry" />
        </mxCell>
        <mxCell id="gWqf_zS7A-Yer8n9UJmJ-19" value="Data" style="text;html=1;strokeColor=none;fillColor=none;align=center;verticalAlign=middle;whiteSpace=wrap;rounded=0;fontSize=20;" parent="WIyWlLk6GJQsqaUBKTNV-1" vertex="1">
          <mxGeometry x="280" y="713.75" width="80" height="47.5" as="geometry" />
        </mxCell>
        <mxCell id="gWqf_zS7A-Yer8n9UJmJ-20" value="" style="rounded=0;whiteSpace=wrap;html=1;" parent="WIyWlLk6GJQsqaUBKTNV-1" vertex="1">
          <mxGeometry x="40" y="790" width="230" height="360" as="geometry" />
        </mxCell>
        <mxCell id="gWqf_zS7A-Yer8n9UJmJ-21" value="Heap" style="text;html=1;strokeColor=none;fillColor=none;align=center;verticalAlign=middle;whiteSpace=wrap;rounded=0;fontSize=20;" parent="WIyWlLk6GJQsqaUBKTNV-1" vertex="1">
          <mxGeometry x="280" y="813.75" width="80" height="47.5" as="geometry" />
        </mxCell>
        <mxCell id="gWqf_zS7A-Yer8n9UJmJ-23" value="Stack" style="text;html=1;strokeColor=none;fillColor=none;align=center;verticalAlign=middle;whiteSpace=wrap;rounded=0;fontSize=20;" parent="WIyWlLk6GJQsqaUBKTNV-1" vertex="1">
          <mxGeometry x="280" y="1080" width="80" height="47.5" as="geometry" />
        </mxCell>
        <mxCell id="gWqf_zS7A-Yer8n9UJmJ-26" value="컴파일된 코드" style="shape=note;whiteSpace=wrap;html=1;backgroundOutline=1;darkOpacity=0.05;size=15;" parent="WIyWlLk6GJQsqaUBKTNV-1" vertex="1">
          <mxGeometry x="360" y="580" width="200" height="100" as="geometry" />
        </mxCell>
        <mxCell id="gWqf_zS7A-Yer8n9UJmJ-27" value="전역, 정적 변수의 데이터&lt;br&gt;초기값이 있으면 Data 영역,&lt;br&gt;초기값이 없으면 BSS 영역" style="shape=note;whiteSpace=wrap;html=1;backgroundOutline=1;darkOpacity=0.05;size=15;" parent="WIyWlLk6GJQsqaUBKTNV-1" vertex="1">
          <mxGeometry x="360" y="685" width="200" height="100" as="geometry" />
        </mxCell>
        <mxCell id="gWqf_zS7A-Yer8n9UJmJ-28" value="동적으로 필요한 리소스를 할당하는 공간" style="shape=note;whiteSpace=wrap;html=1;backgroundOutline=1;darkOpacity=0.05;size=15;" parent="WIyWlLk6GJQsqaUBKTNV-1" vertex="1">
          <mxGeometry x="360" y="790" width="200" height="100" as="geometry" />
        </mxCell>
        <mxCell id="gWqf_zS7A-Yer8n9UJmJ-29" value="함수 데이터를 할당하는 공간" style="shape=note;whiteSpace=wrap;html=1;backgroundOutline=1;darkOpacity=0.05;size=15;" parent="WIyWlLk6GJQsqaUBKTNV-1" vertex="1">
          <mxGeometry x="360" y="1040" width="200" height="100" as="geometry" />
        </mxCell>
        <mxCell id="gWqf_zS7A-Yer8n9UJmJ-31" value="A::num1 = 0" style="rounded=0;whiteSpace=wrap;html=1;" parent="WIyWlLk6GJQsqaUBKTNV-1" vertex="1">
          <mxGeometry x="49" y="701.25" width="131" height="28.75" as="geometry" />
        </mxCell>
        <mxCell id="gWqf_zS7A-Yer8n9UJmJ-32" value="A::num2 = 0" style="rounded=0;whiteSpace=wrap;html=1;" parent="WIyWlLk6GJQsqaUBKTNV-1" vertex="1">
          <mxGeometry x="49" y="740" width="131" height="28.75" as="geometry" />
        </mxCell>
        <mxCell id="gWqf_zS7A-Yer8n9UJmJ-33" value="" style="rounded=0;whiteSpace=wrap;html=1;" parent="WIyWlLk6GJQsqaUBKTNV-1" vertex="1">
          <mxGeometry x="120" y="1070" width="140" height="70" as="geometry" />
        </mxCell>
        <mxCell id="gWqf_zS7A-Yer8n9UJmJ-34" value="Main(string[] args)" style="shape=process;whiteSpace=wrap;html=1;backgroundOutline=1;" parent="WIyWlLk6GJQsqaUBKTNV-1" vertex="1">
          <mxGeometry x="120" y="1050" width="140" height="20" as="geometry" />
        </mxCell>
        <mxCell id="gWqf_zS7A-Yer8n9UJmJ-36" value="a1" style="rounded=0;whiteSpace=wrap;html=1;" parent="WIyWlLk6GJQsqaUBKTNV-1" vertex="1">
          <mxGeometry x="130" y="1080" width="50" height="20" as="geometry" />
        </mxCell>
        <mxCell id="gWqf_zS7A-Yer8n9UJmJ-37" value="a2" style="rounded=0;whiteSpace=wrap;html=1;" parent="WIyWlLk6GJQsqaUBKTNV-1" vertex="1">
          <mxGeometry x="130" y="1107.5" width="50" height="20" as="geometry" />
        </mxCell>
        <mxCell id="gWqf_zS7A-Yer8n9UJmJ-38" value="int num2" style="rounded=0;whiteSpace=wrap;html=1;" parent="WIyWlLk6GJQsqaUBKTNV-1" vertex="1">
          <mxGeometry x="49" y="812.5" width="91" height="48.75" as="geometry" />
        </mxCell>
        <mxCell id="gWqf_zS7A-Yer8n9UJmJ-39" value="A" style="rounded=0;whiteSpace=wrap;html=1;" parent="WIyWlLk6GJQsqaUBKTNV-1" vertex="1">
          <mxGeometry x="49" y="801.25" width="51" height="18.75" as="geometry" />
        </mxCell>
        <mxCell id="gWqf_zS7A-Yer8n9UJmJ-40" value="" style="curved=1;endArrow=none;html=1;rounded=0;exitX=0;exitY=0.5;exitDx=0;exitDy=0;entryX=0;entryY=0.5;entryDx=0;entryDy=0;startArrow=classic;startFill=1;endFill=0;" parent="WIyWlLk6GJQsqaUBKTNV-1" source="gWqf_zS7A-Yer8n9UJmJ-39" target="gWqf_zS7A-Yer8n9UJmJ-36" edge="1">
          <mxGeometry width="50" height="50" relative="1" as="geometry">
            <mxPoint x="410" y="900" as="sourcePoint" />
            <mxPoint x="460" y="850" as="targetPoint" />
            <Array as="points">
              <mxPoint y="850" />
              <mxPoint x="-30" y="980" />
              <mxPoint x="49" y="1050" />
            </Array>
          </mxGeometry>
        </mxCell>
        <mxCell id="gWqf_zS7A-Yer8n9UJmJ-41" value="int num2" style="rounded=0;whiteSpace=wrap;html=1;" parent="WIyWlLk6GJQsqaUBKTNV-1" vertex="1">
          <mxGeometry x="49" y="881.25" width="91" height="48.75" as="geometry" />
        </mxCell>
        <mxCell id="gWqf_zS7A-Yer8n9UJmJ-42" value="A" style="rounded=0;whiteSpace=wrap;html=1;" parent="WIyWlLk6GJQsqaUBKTNV-1" vertex="1">
          <mxGeometry x="49" y="870" width="51" height="18.75" as="geometry" />
        </mxCell>
        <mxCell id="gWqf_zS7A-Yer8n9UJmJ-43" value="" style="curved=1;endArrow=none;html=1;rounded=0;exitX=0;exitY=0.5;exitDx=0;exitDy=0;entryX=0;entryY=0.5;entryDx=0;entryDy=0;startArrow=classic;startFill=1;endFill=0;" parent="WIyWlLk6GJQsqaUBKTNV-1" source="gWqf_zS7A-Yer8n9UJmJ-42" edge="1">
          <mxGeometry width="50" height="50" relative="1" as="geometry">
            <mxPoint x="49" y="840" as="sourcePoint" />
            <mxPoint x="130" y="1119" as="targetPoint" />
            <Array as="points">
              <mxPoint y="879" />
              <mxPoint x="-30" y="1009" />
              <mxPoint x="49" y="1079" />
            </Array>
          </mxGeometry>
        </mxCell>
        <mxCell id="gWqf_zS7A-Yer8n9UJmJ-45" value="" style="shape=image;verticalLabelPosition=bottom;labelBackgroundColor=default;verticalAlign=top;aspect=fixed;imageAspect=0;image=data:image/png,iVBORw0KGgoAAAANSUhEUgAAAS8AAAHpCAYAAADTb7pxAAAAAXNSR0IArs4c6QAAAARnQU1BAACxjwv8YQUAAAAJcEhZcwAADsMAAA7DAcdvqGQAAFh+SURBVHhe7d0JXBTl/wfwT4EIcskhlwiioshh5IFo9ctEUyvTyjJTU8sOU9M0y7Tbn6aZpVlZ/zwyLTssr18eJXbnbSSKF4ogCIKAgMgh2n+e2WdgWPaCHXbY3e/79dqXM8/sHKD78Tlmnr2hb9++/4IQQqzMjfxPQgixKjeEhISYUfO6C7NmxfLlnzFv3m6+zLBthVplliQ/v9rXQghRmpnhZYiuwJCHnS7aAaiP/DhsHy+t40plFF6E2CozwktXEMnDRztgdAVHQ0JFex996xRehNgyM/q8tgphME94JQnLLJzYsnY46Ctn5CHTi5cRQohpzOywb2gAyWtCLAQbK8DuEI47S3gZaqoSQqxRA8OLhQ8LBe0AYmWGQkh7P4lSASYPRUaq+bHaISHEljQwvKQmo3YAycvYunw7o/0eFjZSYOl6PyGE6KZAs5HVpPS9GqMpqI92rYsQYsvMDC9GapppvyzZVGN9WxRchNgTBW5S1Rca2tvYuikd5/puq5CTH0vf++XnN3SdhBBrpOAd9rqYEkSWQOFFiK1pxDvsCSGk8SjQ50UIIZZH4UUIsUoUXoQQq0ThRQixShRehBCrpMBoYz+ETJmOoMrfcXjZPFzhpdYvAn5j56Ndm+aa1YtK/3yNfXwzRd2P9rNuh3szvs6UpODMC5+gOJ+vE6IilWte7AO8EV0fGQMnXtJ0HEfuZ0OxZ84gpCRf4mVKauzjK6EEF9e8iqSHpgivJci6FI52bz8FDx++mRAVKRBeO5GxZBD22FSti9R1Bnkr/0KJcxt49PbkZYSox4xmo5Fmj//T6DSmF0p37IbrgCHwEt+Wi8zPxiDznNa+cleOI3Xlc7hYyFZ4k9RD3KJ1Ds0x/HLnIMPpeUTGtBRLLx98GUe2HjRyfvGtAq3j19mu4TF0HSIDkxvUrHP+z0eIvj0MjnxdV/NQ//GNXZ/29lJc/HEaUvdm8HVj2w0Qm41dUfHVQmRuKdKUDRiPqMfbomgNK/NBq0XPwPPUu7jgPQntY13Ft1zetQCpH58Xl+s0PbWbnbqapgLNMZyNHx+90HrVw2il2STIRtaL85GXBrjPmoc2jsdxOawbvF2FGuT2o2ieEC+cq+Y9xLqZUfMypdnjh+B7hQBZJ9TM5jyHM+c8EXzPLLSo3peVVaDy9Fc4JByHHWvPotrB5ZsnbRPeWxaHLhPY/jXcuv1X88Fn7/lmPxy6PYvgNnyj3vNreAwdiuvf8/Pq2G4uTXC5Iucz6RzCqx4BaPj6WHhPkv1+2GuYLJiMba+vdmh1ZwSanf8HuVKYCdz6voj2fn8jhTUtVySjed9H0SpM2MCD6YbfF/Bm5xScPh0qa3YKwfP87Wh+Yj2Sxe1fIa9UO5wMHF/gPisOlW9qji02a8/5ovWUB6u7IJyiOwq/v+VCuTN8B4ai+GV2jkB4Dgji7yDWrJH7vNj/9K/wmsJxFJ85j6oWrdDCS9xoWKf/wEv4nzNj22pUigVC4O0+jDLfTvCuDieBvCZz6TzKK1zhHBQibjJ2/uKNk2S1mHpen1H94HdzGMoPvl+nJmcqU67PKTAWHgau19h2w9zhO/pNxH6zRHhNQauiTUie+i3/++DO/4EUqSyzAOVX3dA82hPOvTugRXkKcr+tCaKSTQdqmp1RgXB2ykbemt9xTdy6G8WnSuHk1x4O4jqn5/hMybwlshrUGZQcz8U1d284S31yYtAKiSioPPInCtIuoLLgqrhOrF+TvVXC2d8XzVpEoMOkbYh/hb8e6gEXvl1SWZSFKr6MCx/jxNv1qF10ehM3SccWXrHy5p25/DvApXkpyvPzeEEDGLw+VnudiTP5YTW/o1q1UmPbTSHvsJ+ClDeloKlRWZBTU3b0e5we+bLYzGzWqiUcSoSwkY9MHs1GeaU7nFsL7TxxORCtRt+mCSuhpuYX5YrK3NO1zqHv+CLWjBWDVfOK6N+6dvARm9Zkw6v8wkVcZf1fH0hNHulVt0+qQVif2JAeuHbw5epjJ/2aVhOE5rqQijJWC/RpxQvqyaTrq2m675mzCOedbkNErZFbY9sbz9W8S7VrQYxY2ypBeZamNsQ4RQ9DDAuf1zRNyDRZk9Eg1ix9NAYVQjNTCtfjP2XVCVdiu1QOr+Mov1Smu2lz4jcUVkUgZFAjfdhaBsFZXjMSwiI0XsGaF3biUvoluNXqg6uHel9fJsqLKviyLsa2K6v8r1RccY6E34NS/1I7tHqsN9zzeJ/ZgCi0vJ6CMxOkPivdNTu9goVgbCYLQiHMWvehmpc9afhooziaJ43iyUijhU5sez9c+7VmdEvswO5RgbNsu9gpz2iNiBkabWSq+7g0o43BlRtw5EupX0xGvD7D5xdH+fgopTiS93M6fHq6I6v6+g38fNXXb1jtcwik6zf2+zN2fYWGfjeMse1GiB3uWqONtQhhtOgZsR/shL7QEUcnY1A9mCjvv+L7t26jNdRY/R7jx2cjitIopDjSuPki/O5wwLkXPsG/TwnbWEf/1IPwrD5OFrz5CKZ8UIBYJ5rPi6jC+YkXEB5fhHQdt06wEUoKF2JMk+3zIrZN7NDny9W0m4KEGEA1L6ISXc1GNrqpr5lKSG0UXoQQq0TNRkKIVaLwIoRYJQovQohVUia8Iifj062JSEzcgg8fC+WFhBDSeBTosI/E5E/fwZ2V6zFp4kqk81JCCGlMCtS8QhDkfQ0ZBxMpuAghFmN+eEWGw1d7qgdCCGlk1GFPCLFK5odXSBC8r2XgYCI1GgkhltPw8JJGGMeUY8HgiVhJ2UUIsSDzRxsHvoXvJnrgh0kUYIQQyzG/2ZhxHgUOIeiWQPd3EUIshzrsCSFWicKLEGKVzA+vlFO4WMaXCSHEQhSoeWXgfIEDQrolgHq9CCGWokB4pWDpe9uQEzYSK+nBbEKIhdBMqoQQq0Qd9oQQq2Tl4XUvZs2axV89eJmEbdMusyT5+dW+FkJsjyLNxi5duuDw4cN8ralggZGNefP283WGlUXzZV1+0nq/PvLjsH0CtY4rlUnn13UthBBzKBJegwYNwrZt2/iapegKInn4aAeMruBoSKho76NvncKLkMZkxc3GzUIYzBNeR4RlFk5sWTsc9JUz8pChJh0h1kaR8MrKyuJLltbQAJLXhFgINlaA9ReOy/rjDDVVCSENoUh4Wb6/i4UPCwXtANLVcS+nvZ9EqQCThyIj1fxY7ZAQoiRFwot12FuW1GTUDiB5GVuXb2e038PCRgosXe8nhDRVioRX69at+ZKlSTUpfa/GaArqo13rIoQ0JivusJdITTPtlyWbaqxvi4KLEEuy4lslGEO1He1tbN2UjnN9t1XIyY+l7/3y8xu6TkJIQ1j5s43GAsmUILIECi9ClKZIeLm4uKCsjCb1IoRYjiJ9Xn369OFLhBBiGTbQYU8IsUcUXoQQq6RIeJ06dYovEUKIZSgSXqmpqXyJEJX0mInP17+Lh3z4uk3ohdlf/IjExETN6/t3MNSdb2J6zcYXP/Jtwuv7d4ZCvrnJu/U1rFv/Nu5x4ev1pEh4xcXF8SV7NAChU7ch/umZaODfQSMz/fo87vva5J+j24yp2J74KhaPqPm4DFv0hvAhql1mXBwWbVmIxDVDEc5L6o0F13/74999S/FNPi+zmGFoN0P4/T4+FU68RGlFfy/F0IQEJNz/PDaW8EJm91yMvFMoT3gZu3Ku8UIr8scb+PHCTXjug6loyYvqQ5Hw8vFpqv/dRcF/3EZ0HTEKzXhJ/Zi7v61zR9ue0WglLrdFmK8av6UemDn5Dngc/QTT3k7jZabqhqAntuDmB++HAy8hlrVq4lc4HjwYK96+p97/+VOHvdl2IH3xIOz5eD6a5p1ujXN9YQFeKE9PQ1lwBPqx9OrWBdHXjmNPpjN8Ql01bzLJPkwfPAMJozeiQT2nwx/Bra1z8NfSb2DxSpdoPc4sFH6/KxajkpeQ+liFiV8dh1u3+/BUPatfVv54EGsSTUVgdSulFHk7puD0vpZCjWkuwoKb83KZK8dwavk05BexFe39L+DcyrHIymI1LmP7a70n71f8oyMgnPssQ/RtbeHI1/W9TxtrwkW2y5JdqyBgIjqNuQfNDs/EkW3/VK97Se2VWj+bKden/fMLTLw+1kQckrcZhzvfAof/vo+fhk7FRIffcazzA+hy7H2Mnp8jvIs1CR9EbAvNPkA2fnr6XcwXU6otZqx+EgODeW3t/J94Wh5g3e7F6rkdcGxZKjpPuA2at8n31xj+3v8w4t/P8fg0XeHFmnSPw8+Zr6IYFzY/jbR/2gk1rtcRElD9t1Kj5B8c/2QmLpWxWtnr8EybiBzvxejUSVMvKNr9FI7tzBCWNNurj3F+Bw7JAyxkOiJHRqBw03F4DekHD/FtmUj/4AlkF4rv4O+RttWoOQfr83oD3bI/wpjnN0LeYqzN1PdpewC3vDEMPtXnv4DT86fiqHiAWNz8wgy0PDERGUFLERWseVPJvgn4edMlcRnhU9BvTDxa3KBZldS8R/v4pbjw/WTsPaj9r2scPtwxCs7bHsDji/mxTaBIzUud4GIfzgnwufAFDs4R/ucTX8OE4GITIx7FhVVDhfXnkZZZgcpU2XsW1YSBx32DUfWttC97b0u0Gcz6fEzZX3rPIKQcKRaPp00TXC7IXimdQ3iZWAMq3v0bCh1D0LJTzYwdzhHRcK86huy/aoKLBZl07JQzrRE+/l34eLJ3G7s+TXDJf3/6fg79srDryI3o+EA39I2+jpPf1Y6PYYu6I2+aUKtKYK8PsT3TF/1flfq2zmLhmFnitmVJV8SSugLR/1khwCbr2p8ZjvhwFxTl7NcRXCxcxsDz7KfYz3++PXOGC8HFkuMgzn86WFh/GRk5Vag4LnvPYhZcmiMwnr0+QSf333CIbftfMlr0egWBXmyLdIxBOHFC399oMEIfEALsY3Zsdq4AhN4v9Y0JwTq8H5qnSudegdxyeXA1vvYTeuHSOyOweTZ7LcC5olZoP3485P9lu8ctQ5Tzr9jB3vPTGbjGvY4o8T87IZhGxcPxzHJsFfdfj/wqeXCx8Lsf7unSdvYaryO4mFU4kFqFlkG31qvpqEh4eXt78yXLcwrqCg/xw1p/xRsmCbUsviJ82IvSslHl6ocWDTxebQPgH9sW5Qfek52jHnJ+waVcR3i2v4P3t0XBMywQ5SmrxfCsFWScrsDTq/Ot8HI4hvSta3GVF5mupn/r4K4zcOg+AD2vZeA7rXbf+ukfyWpJZ4Wgy8VVdy9013SSmaAEycs/5cfQsX+PMPg0K0H+Wf2h27x1HNzr25kiJ69R5V9AWZUHnEPE9DIBq+m9wGtaB3EpPRfX3QPQgl1PSCicHTORs/N7aLra16MwvQzOXt0t1v92etnzvJbFJOFcRhH+dQ1EK3l6XUzEjveWo4ItZ+Wi/F83uHUUfoDwYLg4CC2VbxMhZJbgO+QI/xE09+lW08oQOAX1RoCOBowuLX061ApOYxQJr549e/IlS2I1i9lIK2iH8Ge3If6VBoz4dZ6DWLYff8XKm3fmCugA5+alKMu/yAvqS/j59iTjuhTOAX3Q0u8SCg9rwsrJyxuOpbm4IjUpmZxUlFe4wsXHlxfo5+zvq8zPevAwjpS6oezknuomn3tAmKYTf9hYbElciET+entgawsOfLCa0evIKI1CxPP877gBI4IVxRk8XAQZi5DyllR7M1NGOsqrghHQjw8WCE3IwPYuKC88UHO+xtZnLu6Zuw738lfvGC9otQBRWZRWcz2nlmDny7z2dCoTZdf80ebBBM2/I6EJGdbaERX5B3mYJeHvtxfiXGUEur7Kz/Fc7Vqduay8w76mabRnzmJkO9+OzqaODLJm173dUXWgptmV9PtZ/otXQD2CRK9jf6DwmqYmxWpazhk7kctrcZWFBXVriWYHZkNomn+aPq6zSLvI63Gsz2p8FC79tIg3G2fghe1ZDajlGbA/DflX3eHT1oMXaKtp2onNMu8BiGpiI4vNI55ADxasYzRNyJMWajKK/VX92qFUaOZpmnQj8FdyIerbAe7UfjzuYsE0VtOE/F3qDxOxABvJjy80K1sm4I7HeNjpcCk/VVPDM5ENjTZmorxI+0c/irJLFbqbll4BcHGSfdCFMAvtqV3zMrC/UTuEZkAx3Lo/h4ZPNLsDF5Ly4Nb+QXiHeeLy6Z+rP/zlx4+gxLEzAnvfxEui4D+oP7yKDuC82O9nmGb/miamOEAQrS8EGiDMG96sSZdeqlkXwuzZBKVrXl9jz6kyBEc9iDBeol8ayi9p/9d0EGVFV81vWjbEzXHwuvoPjr+j+Y+Tvf7+VmpCWkBrPzjfUIormfwzI4RZbHTdmpdefboK15+CQ29K/VkjsH2l1ITU5TSulF7ny9rGoXsHR1w6/4dJ/cESRVoO6nzhrJ6RslW1+3CKN6xEtvA+1rQUO3qlEbljr+DMEeEDO2A5Wg1gG4T2+88H4NKz9jC/3v1dtEb6cDtueuX2WiN+xRuGI0X4gEU+tg1t+LtMHc2TsJAp73kPQoqE/eShlPMhTmwOQOyw+Yjvzsvkx9YeidS+PmH/9L3RiBZ+/nj28wv7Hv89FB0iNO82zA8B3kZiaP1nWN3rDUwY/yoSx7OCbPz03VF438k/HuJoojSKyNyCjxNvAUpSsPyJVVjHS435es8pjH4yCg8K6VX7Ni/tkUYB67/SCojCb75ErvA+1rQUVY82alb1qjNSOABdXxF+kdL+vFSvv79GdvfXa84r0R61bCy/zMaxzmsQdf9K3Hs/K7iA07+fQZj0b8mYX75FVtwMsUnYlReJqvvItEcaBWybroAb1x0dHM9i22emjzQyVj4ZISE9MPPz/6L/v4kYP+ZtoX5lHVrcuQLRkXk4KQ9KHoj/7rfUrRIN5/vwR+jVIRt/L5wDqfIm3Tpxbb/sdgqjGnabBKNIs9G+Hw8i6tqP+Ut/RlbAALz+gvHGY1PRvKVX3Q+fjz9cHItRntf48ePs7Izhw4cjMDBQXO/YsSOGDRsGBwdNj+DAgQPRrVs3cdnT0xMPP/xwrSdpPL3c6zYxtZuiJhj34cOIyNyC6fUMLkaR8Gq6jwcRu7B/Ph59+SfcEDfZah7MLvxmbu2RUPa6JxQF4k20tUczPW+ejI0GH8z+L/oG1G8Ygs1+HBERUf3ZZSEWGRmJZs007fhOnTohLEzzn4GHh4e4zcur5haR08sW1R5JZK/+/sjTeROqHre+hjv9/8F7kxYbb2brYOV32BNC7JUiNS+av54QYmnUYU8IsUqK1LzU+8ZsQoi9UiS8unTpwpdUEjMVK7ayjsvN+GBsMC8khNgyRcJLXTGYOvVOtDqzBmMS7sWkzzJ5OSHEltlAeIUg0LsKGQd2gmKLEPuhSHjt3buXL6kgJhy+Sj6qTgixCoqEV0FBAV8ihBDLUCS8VP26/5BAeFdl4MBOajQSYk8UCS/2qIHFSSOMI0vx5r2TQP30hNgX6+2wT16Mx+9KQMIXrnh18wegOyQIsS+KhFd+vjpfOiXKyEaBYwi696P0IsSeKBJe+/bt40uEEGIZioQXPR5ECLE0RcJL1ceDkk/hYn1m7SeE2ATr7bCvloHsAkeEdO8H6vUixH7YQHglY/HiH5HXbjRW04PZhNgNRebzYt+YTXfZE0IsSZGaFwUXIcTSFAkvNoc9IYRYkg30edGtGoTYI5sIL9VnciWEWJwiHfYsPNT5yn+NpvLVa54jOyKyVQGSFl/U+XX+xrbX5Yq2s8MQ6MZXL+TUY1+ZYG90fiIILa8W4uQHWcgXvyTPCQHPtEdYm5rv+6s8mYHDq4pxla+LdO7LmLB/bAC6DveFNN1ayZ6TOLJJ+iJ7E8/PmHj9TO1zEFvm4Onp+TpfbrALFy7wJXWw0c6srCy+phZXBN7ribI/s5F77jovkzO2XRv7cIbBvzATf79zDumJpXBMaIPQDuW4mFQBU46gIRxnVBv43FCJfx2qULivBGXlrPwaLu+/iMzEXM3rRBVaJvjDrbIIhbLrc+ntB79rxSh094BzqXybsf2F4H28JYo/PYmUDcL2/BsRPDAALcqk7aadX//1O8Cthzccj6Xi0IfZ1cfJPXFN3IvYPkWajR06dOBL6mgKz1a6DPRFqxsu41JKFS+pzdj2OmK9EdSmHDk/STWRUlw4WIIbO/rArz63srHjeBfj7J+XhbgwILMCZZXN4NJK/k/CCZ7tmuHyiXxcPPsvWnZqAc33KetQZ/9SnJ2bhixpqqKkApw/d6P+Y+g8v8DU6yd2R5HwCg8P50vqUL/Dnn3IW6AsOU/WrJIztr0uzygPNL9QgoLqecpc4d/NHY7CsZxDHIUwDEWPt6IRPcSJb2cByco6oX1vR14i1H7u9kUlO28pL9In1h3ebqUoPChrcgW7wcv/GsozqlCZX4EbW7vDoyXfpk3X/vWhc/96XD+xO4qEl9pU77DntSS9H1xj2/WoLKqEWE9jfUdvBcPh5wxkX9bUTsq2p+PIryVwiW+N1qwmJryn8+3OKNhyGqf/0tTuxNpeaQ5O6+0DYn1q0eglhGCv4Z4o2nKupqYkcIl2h1uhJkDLjpTgcjM3tIyUgpExvH8t4u/gOi6duCLr0zJyfqPXD7jHd9Tsz15TfaHCtJhEJTYRXmpjtaQbTuYjV88H19h2QzxGCh/OexyQvuCEEEqs4XQVZXmaPiEWYCePNEPIsDboyGooe9Kqg4t1crftJYTZvksGOvhZ0+4Idr/EXpm4dkcEuo3z4M06XltMK9bsn3kZhRe0m32G9pfT1KCaX8jHeen6RAb2N3r9lcj56Bjfl73SkO0agFgKMLuhSHj98ssvfMkOCR+yoI5XZX1TWoxtN8CpYwjaOuXgwH/5CFtwc7jUtBJFRV9kCR9aT/ho1VA8b/dFi7PZyKgVFobwPjWpaSg2Ga9XByULi7Kia3DydBKarrpo7V+N1a7CEHhDIU5+ZmiktPb+Db3+KrfmaKGvaUtsiiLhVVZW78F7Ran51WvyppUuxrbrU3S0GBXCB7JW6Pk6weWqvNOfjUiGwOf8eWRUtkJkda3HFV5tncTw6y41qdgtC65e6PhitJ7aEXe5AleEoBSv26kZ/AZHVDfLIqOF5PR3h7ehAQO+v4bm+sTgqnWbhQHi/g27fief5nqCldgiRW6VYPdZpaam8jXLUy88XRE83BsVBm6PMLzdgJx/0TzeD8Hh15G/5wqqWA3m8dZocT4PGXs0t0p4jmyPjkGXcfrzXFxIu46WCcFo5XkJuSfKcel3fguC9Mq/EX5hFTjz3mmc5vvXItQQw4f44tqx8zh/wgG+d/rD/YJ0m4Z0nFI4Ctfk6cjOoTX2V2t/zTbx+sIrkfFpBi7kikX61dq/AdcfG4Covu4oOyRc7z80LmkPFLlJVe2bRFU7P+tIZ/1R+moVxrYbxZtc/CZV+U2c4g2v0Tcgt1YHfSiibxc+wLpu1NS+FiEsxBs/q5uhV2XHYudlAwQ1x5ZU32i7/jra6t1fwM4nu0G1RikyPkxDFgydX4c6v8vav5vq4zagX5FYJwqvBmNNovbwzTqt545uY9sJIeZQpM9L/bvbVdBIt0cQQkyjSM1LbWo/W0kIsTxFal5q3yRKwUWI/VEkvNR+PEftZysJIZanSHipTe1nKwkhlmcT4UUIsT+KhJeat0kQIuoxE5+vfxcP+fB1RlcZsRmKhJeLi7qPwqr6bGXEULRbuwSxKyfA04+XKSl2CcZtS8Mrm35A90BeZk9ihqH9F8Lvd8UT+qfjYSH13/74d99SfJPPy5j98/HDuY546t0XEMaLiO1QJLz69OnDl9Sh5rOVzXu3h1PqQeT/2wYevb14qTKCpv2GF9/ogPxU+53Myln4/TY7dhAFjqHC79edl8r1wMzJd8Dj6CeY9nYaL6vx9XNrcNhnAN579yFQBcy22ESfF7vDXh2hcO/sjtKkLSg8dR3usTcp92CwUOMaEHMCq4fcjdPitMf2qD3cI1xw+dAGXDrlCI+uN6H2jPWC4Y/g1tY5+GvpN5BXump8jefWHIbjTXfjcap+2RTqsDdHxM3wCKxExbFCXM0thENIZ7jWq+k4Hg9sFJqEidJrDwZE801JU7Bq3BPI4asWFzwVnWeuQFA0+3Mb4l9hL2G9Fd8uGoKw6dI24fXEdP4so6Y88s66o8Ath63HzQ89ZFrIxwi/X78yVCSXoDKvEI5hwu9Xq+k4PD4cVf/8gBV1K101vt6DU2XBiHpQR3qxJueORCSupqaltVEkvE6dOsWX7AtrMroWnEbRCaDir9Modapf0zFq4QhcfjkMcxLY61H8me6NuJmfIoBvN0vvp/D2hx/iwzqvl/GwyXPgByHkvhgUrRiEPXNeQvr5VggZKg+op9Hy3CocmMO3X78dN4sBlo7yS7pmL4uFi6cTKi79rZkh1gjWZHTNPY1L54By9vt11m46Dkd8uAuKcvbrqXVJvsaeU2XwDOhBTUcbokh4qTkdDqPOs5WsyRiA8hO7UcFWj/+N4uxm9Wo6Hp2RgB1H+Ap+x/EjOah0D0KwEh3zf32CFyZOxMQ6r//iK5NnXihB7g8zcT6PLSfh0tkcXHPzhyubyaFLPLyuJyN96zc8iJKQvf8oKgMi4dMqCWVFlWje8mbhdxGLwMc366yFGcaajK1Qevx3zXxmycLvN9e5dtOxRxh8mpUg/2wxLzDM3actPPhytf3z8eiABCSMeRuGKm+k6VEkvOLi4viSOlR5PEhsMl5FeVYJLxBqG/kVcPL2r9svo8+Q7/FcdZMxDY/f3QZaE6U2nCI1L/1cWvnAwS0GHZ+TNRuHxFZff0VhARw928AhuA9atriMZq3vFWpkoXBuWY7yiybMDyQ2GctRce4KLziNivwqOPkEUF8HESny78DHR93KuBrPVopNRidX+DzyOmK/WSK+OnQVmjQB7eHZib/JEHYLxNM348quEbzZGIYVP5yDYnNQKFLz0q8sLx/XLifj5HusySh/PS7W1MTtwvucO0Xi3xNfIvfGjvCJDoOzUFMqPydW5QwSm4zN3OE79r/Vv992XVyA1u3Rsg1/0/405F91h0/bOvUpnUryz8K0OhqxBjbxn5jln63UNBmvpWzAkYemIKn6tRZ5Jf7w7BfC32dAaBu0dCpFUQb/wl42uthfwZpXYzu8B4U3xiD0Lj2d7wUXUObcEf7h/6L47/8JTc4b4NHJEyjNR7nRO1s0Tcaqw98iudbv9xtcLAuCx13+/H2avqzgqAeNdLYb6BuTOuw30s2s1oZq4A3ih+beV1GS9I9Wx/N+FJ0qgWunXjpmENWy6X78eAgIH7tL02xc1BPnt/yNy3yzfCTy/q6ugFskBq3VGpFU1SakLfoYl9qMQ3ep2SgfccxMQ7lTCLyvnUQ+q4mdSMEN4fHwLL+A0pofUo8A4fdbjuJD/2h90eyfKBbCyj3ituo57L/ecwplwVHQNZBYbXg8wl0ycfRbHb1aYu1N+NO9HeITKL2siU3M56X2TK5ETT0w8/P/ov+/iRivs9N9ON7735Pw/m08xui4iZUZ/t7/8GSXKvzzyeOYVusWfdKUKVLz8vb25kvqoOCyZ/sxf+nPyAoYgNdfqFv9Gv7eaHTJ34HX9QSX1KRE5l9YSsFlVRQJr549e/Ildaj9bCVRnrOzM4YPH47AQM19Ix07dsSwYcPg4KAZyx04cCC6desmLnueXIatP56CY/y0Og9m393mJD6Zpvs2iB4zP8eOxCfFcNNdayNNmU30ean9bCVRHvsPKSIionokm4VYZGQkmjXT9HZ16tQJYWGampaHhwciPXPx2gtL6jyY/eiwabXLZPbPfxQDEugeL2tF3x5ECLFKitS8aA55QoilKRJean/1mb0+W0mIPVMkvNR+PEjtZytJE6Br1lRdZcRmKBJeaj8epGp4NuZMqlrPPj41O55vsCM0kyrRwyZGG9UMz8abSXU8HhgXhJQpfMqc9/9Gi77L8fBo+/oY0kyqRB9FwkvNaZjV1YgzqWI5vhsaXzNlzqb38E+6E4J6PFh3WhebRTOpEv0UCS9VvwBDTY05k6raaCZV0sQpEl5qf2O2Wvd4WXQm1SHP4abQSpzf/61p07rQTKoyNJOqLVIkvNSYT0tOnWcrLTmTKuv/uhlu2bvxyxoT7wWnmVTroJlUbYtNdNir8mylxWZSZU3L2Yi8IQXbZtTjCzloJlVi4+jfQQNZZibV29B35Qua4Hr6bhzI5sWmoJlU66CZVG2LIuG1d+9evmQvLDOTatTCZbgltAD7ZtczuCyBZlIlKlMkvAoKCviSOiz/bKUFZlIVmpR3shlU4Y+4JTVNS5pJlWZSJRqKzCrBpqSx29sliMpoJlV7pUjNS+3JANV+tpKoiWZStVc20WGv9rOVRHk0kyoxRpHwys+n/7GIsmgmVWKMTXx7EPW5EWJ/FAkv9niQ2hMSEkLsiyLNRrUfD1L72UpCiOXZRIe92uFJCLE8mwivJu2mxRi3LQ2vbNqK7kG8rKkYuhCbEhORyF9rZ0fyDRZ002DM/mYBPvp8LP6j5FyOxOYpEl7293iQaYKm/YYX3+yI/FSjt5SrYCgWjgvEvskJSGAjbksPwb3vW3h/lM4JeRpF+MQpWDLdB9mp9jqZJTGHIuGl9uNBTTI8hRrXgJiT+HzIXTjdJD+bGzFjyCjMTZFWv8BvGU4Ijeunez4xpQk1rofCz+CtRz9Dqq6pvwgxQpHwYl/6qib1wvNx3F9rJtS9GBjDN/0zFavGjUeDn6eOnY5V29Zi9n3sT6lpJ6xLLTtx+6ZaNaXY6auwbdP7YEVDF27CpvfnYukmtp/wvumv8OPIjqGmf7Zg7tQtxqf46f6i5sHpz19EO15ECGMTfV5qfd1/1NuP4Mor0kyoo/FHuhd6zFyOOnMJNlgg+k66GanTWdNuOrZm+KDvrNkwNXvcoqLx77fzhP2cEHVXJ+E4S3HociA636fjCENH4j8hlUjft9O0OcNufVrPfGGz8XBT69sjNskmwkutZyuPvpCA7cl8BX/gBJsJ1S0IrRX78F7G0VXP86ZdEhLFmVb90dXUdl32Pny8VnN7+eWj27Ei5SxyCmrPGKbB+r+6wk18v4nTHf7xsZ75wubiq/P8PUo4sEAz0+mjC3CGFxHCKBJednuD6r3fmTATalMnBNemyeiKo1j1/FxIXWBGUc2LqEyR8LL8fFq1qfJsJbsFYkJXXNk10sBMqE1dLKavekoTXE89C1MrXSJL1bwI0UOR8OrQoQNfUse+ffv4kgVJM6Ge413ybHRRayZUk8Q/iQWsxrJgEvrW53tEkk7jYqUbvEP5TkMX4o27Qup1/qEL38BdIfnY9VI9g8uSpA77je9hOE0eQmQUCa/w8Pp+M4yyVHk8aPMD+PHgvwgfw2dCfbcXsrccqpkJVTYSeX83N8CtMwat0RqRNMtGfPFbBnz6LtWMRI5rjm8/l5/fCCHsxnVlXwMUiL5L2Sik9LLUaGRPPPPFAny0YQEeZnPTu3fGwyvZ+hQ8LJ9F+0Aa8ll11j0M8f0ovUgNRR7MZrdKqPXdiYza5yeN66H3tuCpLtdw+P8ex3Nf0/RLRMMmRhuJLXsIvTq0ALJ2YykFF5FRJLxoLi3SGLq/yGY6fQpdCn/EE3SrBNFiE5MRsm/MVvsRJUKIZSlS87Lfx4MIIWq54bbbbjO75sXm01LzXi+1z08sS2gtICoqigZp7NwNd955p9nhxb7Z5eTJk3zN8tQ+P7EsdmtOfHw81qxZw0uIPbqhffv2ZocX+1/w6NGjfM3y+vXrh507d/I1YutYTbt///5YtGgRLyH2yCY67KnZaF9uuukmDBgwAG+//TYvIfZIkfCi8NCDPbg9pSvYfexM7q6R+GTuX3ytCWDTQE+uub7sXZMxqnp2QgsYPAaLHouENCdI1s53MPfDPL6mH4UXYRQZbVT723vUfrZSt8dx/2PBODaVz/e15BBa9P0/PPxo3a+kV4fa00D3xDMPt8T+KS/imfuE18oUePd7Cs/cK0UpIYbZxB32aj9bqdsKfD+0Z818X5vfQ1K6E4J6PAQPXqQulaeBxl58NHIJvsrgq1t+xf4sF4R2i2oivx/S1NHjQWYxMA20uWx9GmhT0TTQRA9Fwste77ep1zTQ9z6H2NBKnN//DYp5kXF2NA304NvRo3UZ0g8ercfvh9gzRcJLrWmYJWo9W2n6NNCs/6sr3HL24NfP03iZKexlGmjW/xUJl6x/8P1mrUl9aBpoooci4aXWF2BIyspU+m4xk6aBZk3LlxF1wzFsm2HGtwk1GrWngWbzet2P6GvH8NUrJnybECGcTfR5qfJspUnTQN+KO1a+qAmuCXfhQJObHlntaaDb4uEP7tUE15TP8FshLybEBNRh31AmTAMd9fYy3BpaiP0vGwguO54G+j9vjMV/Wufit5cNBBdNA030UCS8Tp06xZfsiLFpoIUm5Z1s+mf4ocfimqYlTQPNDR6DIWz6ZwThP0s000FrXjQNNDENPR5EmjztaaDpDnvCKFLziouL40vqoOCyZTQNNNHthpiYGLNrXrfeeiv++OMPvmZ57A57u2y62rjYyR9i1h2BcMz+GdMmLsVZXh4dHY077rgDS5cu5SXEHtF8XsTq+Pv7o3379vjrryb0kDuxuBu6du1qdnj17NkTe/fu5WuWp/b5CSGWZxMd9vS9jYTYH0XCi769hxBiaYqMNrJmm5rUfraS2IC4l7Bm/SIMa8nXGV1lpMmwiTvs1X620iD2GNG2NLyyaSu61+OZv9jpz2Jb4kIkyl5rZ9d30sfuWLjJ3GM0kth7sGrba3h/lCcv0If/DGvvN3k2jXpjITWnH67vXYL1l3gZs+8tbM2MwIQlMyC/b5Y0DfR4UCMKmvYbXnyzI/JTTb7vvbbLx7Fq5AwkJAiv6b/i6q1Tsen9W0ybLFAMh+HomL4RI9n+/DVqbhZ/gyWEYvqqeaZfsyri8NLkPnA7sgxTFkozI9ZYN3Utkn0HYsmiYaAKWNOiSHjRTaI6sGcdY07i8yF34bQSk14k/Q/jPkkGovphltHaiqCtN7ydcrDv4z+tfKaGA5gxRAjeUd+bPuNFfYx4BLcG5eCvJeshr3TVWIepa5PhFDsYT1D1q0mxidFGNod9amoqX7MkPt2NO19FLvZPlU39zEW9nYz7O52r18wSrNn41n9K8cVTK2QPTbMm1HAE7lusqUGx2tVbtyNEehqb1dSk9w99FJsmxwBHN+KpZ/UEmIH9hy58DeOan0RGaFdEul3G0a1H4N4vXnhvDnZNXsTnGNNcj/iIJJO9G5PFkGE1rqdwV0gzvkFGOkcAO3c3lOyUjss2yo+tdYzqY3PitXdC6v+dQIcnpZ9Bvr9A++fjsnfx359gxOIf8NC1VRg3XV94MSOw+Ifx8PplHMZo1854kzMoZzvGjVmIunU30lhs4vEgdYKrnjOpKsjdvy0C+Aez2R+Lq5uES08GC7Wzx8VpoLHxc7y29Rycoobii8SFdZtuxvYXuEV1xL/ffoatGc0RdVdbpE7/GocuB6DzfazfTBNcNc3SD7D1ancsFfum0rFo3CxNWcZVXBYCtLrpOkQexm78uHx/caZYqW9LOoZwXYf0NbsD0HcSmyFW1/7C9b1xO7xPSedm1147uFgo9Qx3RnHOPgPBxazD3lPl8AiIo6ZjE6JIePn4qPu0v1rhafpMqsqLSmiHgMrj2L6ipg9r4xcHkeEUjLh+mmZl0qL3MUj44E6vDrGaDvJYE/ZHdjI+XqsJjstH92BFSh5yCq6K6xgaiY44jm/nSbU6IWw2HcflwDDommVaNzZT7HJeU0rnM8V6mT5TrKH9YwPgW6vZfAB/nrysCX5xXRDXFj6OxbiYZtrE0x6+YXW/HGTfWxjNZnqlWpfF2USHvWrhadJMqgoSP5BAyYWzcA/wglNJIQ7J24NJOXyOr9pfHyaF2NJDQug9OEysWbWtx/66xLZvCSe3CIz7QjaaKTRTje9pIeLPEoC4p3mNU6hpDol2E3938h+ZWC9Fwku1aZjVZNJMqsoSa0tCbeLYhiyczSmsW0sRw+0yCtJ1N7M2/pmGy24tweYvbMj+ckmnL6FSPhpa/ZL1OTUBbrzZnLhI04R8Xj7auu8s8qs84Btm2petFV9Moy8HaUIUCS+1vgBDVSbMpGoSU2dSHfoo3rirDfJ3fSWGQ1LiGeQ4RWDg49J9W6GYPqU3QvJZU6+Il8kJ24dEwC07DRsatL+WjSk4iQg8OMvQbRDpOH2xAm6hEein/02Ngzdr5eE6pM7AhaYvKzh6uJH7uAz0jbEOezbT6wa6mdXSFAkvtb8xW5XnGo3NpCr7Tsf72Yyqbp0xaA1br8dMqvJm2eQwpK/6b01nM791wr3vVN5sm4S7mh2oHpGre5Nr7e3G9jeO3cLwNU6G8pqN9NK6mXTjjB9wSAi56p9jU82AgEFsQGGbZp/JbDgzsBeW1mf/jb/it4L2tZu17KV1fev2nkJ5cDSGG0qvET0R7pyJI1/r6NUSa2/Cnx7t0KsfpZclKXKrhNoPRtOzlUSbzltNZCOsNSOOcXhpzRz0u75Tz60OBm6T4NjtFuNjKpG0bBym17pFnzQmm+iwV/vZStL0iAMSfLmaeOOudp/ePry19BecDxiIOTPqVr9GLB6FmIvb8Yqe4JKalMj8C0souCzKJsKLEG0bZ3yGrdrNRrHpvRjPavfpsdsdXtmJG3tOqfNg9l3Bx7Fsiu7bIOJeWoMdiePFcKMbVC3PJqbEofm8CLE/itS81O5vomcrCbE/ioSX2lPSZGXJ7t0hhNgFRcJL7ckA1X62khBieTbRYa/2s5XEBuiaNVVXGWkyFAmv/Hz6MlCdtJ59fGp2b77BOJpJVcJ/BppJlWhRJLz27dvHl9TRNJ+tfBz3PxaMY1P5lDlLDqFF3//Dw4+G8e0moJlULYBmUrVWioSX2o8HNc1nK1fg+6GyiQk3v4ekdCcE9Xio7rQqpqCZVE18bKmeaCZVq2UTjwex8FRnxNG0mVQ1bsUdK1fi5tIVWD55gdHZCWgmVa1j0EyqRItNdNh36dKFL1lWvWZSvfc5xIZW4vz+b8yeVoVmUpXQTKr2zCbCSy2mz6TK+r+6wi1nD379PI2XmYdmUmVoJlV7pkh47d27ly/ZGZNmUuVNyxuOYduM8eCzfzUMzaRqOppJ1eYpEl5qPx6kSniaNJMq6+d6URNc9fjmIH1oJtX6o5lUbZci4cU67NWkSniaMJNq1NvLcGtoIfa/bCC4aCbVxkEzqdo8m+jzUuXZSmMzqQpNyjvZDKrwQ4/FNU1LmkmVZlIlyrCJWyVoShyijWZStX2K1LxoVgfS1NBMqrbPJr7un80qofYjSqSp0XWjLLu1QsdMqgzru3rBF5vGT695vlFXmQybSXVOvyA4ZtINqmpQJLw6dOig2lfuE0LskyLNxvDwcL6kDrWfrSSEWJ5NjDZSnxsh9scmwosQYn8UCS+1pqS5e8EGJCYmInHzBxgbzAsJIXbBBkYbYzB1xQL0LfsGz0z6DJm8lBBi2xSpean7eFAyEpOz4egdgla8hBBi+6jPixBilSi8CCFWSZHwUvtWheRTF1HhH4HBN/MCQojNs4nHgzTuxoIN09C97Fc8/8ib+JuXEkJskyI1L7XmkK929wJsSByJ0jcTkEDBRYhdUCS81H48JybcF80vHMcWSi1C7AZ12BNCrBKFFyHEKikSXjSLKSHE0hQJLxcXF76khhgkxASiqiADebyEEGL7FAkvVb4AQ6B5MHsxBrc6g+/n03ONhNgTm/gCDkKI/aEOe0KIVbKhO+wJIfaEal6EEKtkVngNfOs7zUymWz7EY6G8kBBCLECBZmMkJn/6Du6sXI9JE1cinZcSQkhjUqDZmILEw1lw8G4Df15CCCGNjfq8CCFWicKLEGKVFAmvlFMXUeYXgUFxvIAQQhqZMjWv7S/hgYTVcH4xEYnrXgNlGCGksSlzk+rAt/DdjLY4/NIIvLGPlxFCSCNSpOYVGe4Ll9zj2EbBRQixEOqwJ4RYJQovQohVovAihFglBcIrEgldWuNawTlc4CWEENLYzAovzYPZSzE0IA0b3qbnGgkhlkPzeRFCrBL1eRFCrBKFFyHEKlF4EUKsEoUXIcQqUXgRQqwShRchxCpReBFCrBKFFyHEKlF4EUKsEoUXIcQqUXgRQqwShRchxCpReBFCrBKFFyHEKlF4EUKsEoUXIcQqUXgRQqwShRchxCpReBFCrJKZ4XUXZs2axV+9eJmEbdMusyT5+dW+FkKI0hrxCzhYYBRi3rzdfJ1hZbF8WZeftd5vjHQOL63jsuOwMun8uq6FEGLNzAgvXUEkDx/5dn2hZE6oSMfXPrZ0TAovQmyZGc3GrUIYzBNeScIyCxC2rB0O+soZechQk44QUj8K9Hk1JIDkNSEWgg3dnwWnIXcI72P9cYaaqoQQa9TA8GLhwUJBO4B0ddzLae8naUiA6SIPRUaq+RkLOUKItVH5G7O1w8YU8n2099e3rSHnIYQ0ZWaGFwsFQ00yfR31koaEiq5zsvOwmpspQUYIsQUK3KQqNc20X43VVJMGCqRz6AouQoitUyC8TMVqP6y/S/5iNSipU116NaTfiwUaBRch9kTlZqOlULOREFujcoc9IYQ0jAWbjYQQohwKL0KIVaLwIoRYJQovQohVovAihFgl9UYb/Z9GpzH9cO3XaUjdm8EL5SLgN3Y+2rVprlm9+DsOL5uHK5o1mX4ImTIdQZX6tjcWU69PZZH3of3sPnAvT0HaC5+gKJ+XE2LlmnDN6zhyPxuKPXMGISX5Ei9rSpr69Wk49+6AZicOouDGEHjc4slLCbF+NtBs3ImMJYOwpynWelQXBrfOrihN2oTCUzfAPfYmOPAthFi7hjcbxWZfL5Tu2A3XAUPgJbaeSnHxR94M1NEsdP7PR4juUYGzK5/DRSe+/dBeOHTtW3d/GY+h6xAZmKzVLDOt2Sae8/YwOPL1+jbvTNlf9/UxvEnrwVeRi8zPxiDzHF+ts1375ze23QixydgJJa/MR3HfGQjvVYwMajoSG2FmzcsPwfcKAbZOqPmIzaer8L31Ofh68c1GucK3V3QD9zfebNMEjytyPtMcX3zVO7gavr/H0KG4/r2073M4c84TwffMQgtxKwvfSfDN+wqHpGPPGSYLJmPbjWNNxhYXT+PSGaD8r1RccaamI7EdZoYXqwm8Ul2TKN79KwodvOHsplk3ztz9DekHv5vDUH7wfVlNpz7M3V/4eTZOku17HMVnzqOqRSu0kIWzU2AsPAyEtbHt+rEmoz/Kjv+FSraakoSinObUdCQ2oxH6vFzhHBTClxvC3P05/w5waV6K8vw8XlBP5u7PdHoTN72yDfH8FStvfoo1x5k4kx+GDpP4eyZItTLG2HYjImPhGVCBiqzLvCANFfmVcPLxp/AiNkHZ8GoZBGf2gT9vetOmFnP3l7uQirIKIQh9WvGCejJ3f9bnN6QHrh18mTf5BiHp1zRU8c0aNU3fPXMW4bzTbYh4ZAyc+Fbj2/UTm4zN3OAz6k3EfrNEfLWPdQUC26NlO/4mQqyYguEVAb9eXeBy8QQKWFNJ+8Mv1EI61ap5aNPa32w7cSn9Ety6PYvgNryoXszcXwpiqeYmhFlovKGfPxPlRRV8WRdj2+U0TcZrR75D8kNTkFT9Woe80kB4DGjN30eI9TJztFEaZdSoPP0Vjny5WtPHIqg1UnflOFJ/KUHrPu7IYqONhdojaVr76zi+iB2nerTSwPZCzao4EhjTUrPC1HO0Ue/+xq5POH/tfXOR+XM6fHrq//lrX5ux7YbEo/Wqwbhxw9s4t7mIl2m4z5qH9v5/I2XKt9V/T4RYIzPDy9Ad8oQQ0ngaocOeEEIaH4UXIcQq0TTQhBCrRDUvQohVovAihFglCi9CiFWi8CKEWCVlwityMj7dmojExC348LFQXkgIIY1HgdHGSEz+9B3cWbkekyauRDovJYSQxqRAzSsEQd7XkHEwkYKLEGIx5odXZDh8XfgyIYRYCHXYE0KskvnhFRIE72sZOJhIjUZCiOU0PLykEcYx5VgweCJWUnYRQizI/NHGgW/hu4ke+GESBRghxHLMbzZmnEeBQwi6JdD9XYQQy6EOe0KIVaLwIoRYJfPDK+UULpbxZUIIsRAFal4ZOF/ggJBuCaBeL0KIpSgQXilY+t425ISNxEp6MJsQYiE0DTQhxCpRhz0hxCpReBFCrJIi4TVo0CC+RAghlkE1L0KIVbLf8AqYiE4vrkf7uNa8QFsU/MdtRPwr2zSvp2dC97RlAxA61dB2a9fYP5+N//7iXsKaHYlI3LAIw1ryMqIIRcLrl19+4Uu25CgurBqKPXMGIeVIMS9rajQB23XEKDTjJfVj7v5qa9rXH/fSGux4yRcZqeW8hChJkfAqK7PnW+x3IH3xIOz5eD5s87fQ2D+fjf7+hBrX5A6H8cR903HkKi8jilLkPi/WYb9t2za+ZiGs2TemBy5v2w+3QffAy4kVliJvxxSc3pfFt9+Bqp/5usC5zzJEdytD2vJpyHfh2w/sg2P3O+ruL+Nx39eI9P8b/9T6gLH/9eciLLi5ZjXvV63tGuI5b2sLR76u7326sSbVVAS689Xq62tZ+9xyV47hFPv5itiK9v4XcG7lWGRlaV27XPX+jf3zGTm+zr/f+lw/X9eHNefmRODwB8fRZVI/BIk/QCa2jxuDhRnS9jjkfjoO09dfYhvFmtScuFx8Om46mr3+Ax66loTzEfGIcC5G0pYk+A36j3Ac2TG4EYt/wPjQ41gm7McPVUM8j3D+nO0YN2YhZLsRI6y8z8sfbYYI/8DXCv9zi827a2h123T4ePLNRrmiVe/IBu5vvFmp+WC7IHul5vjiy+TgYh/QCfC58AUOSvvOGcaDVTr380jLrEBlquw9i2o+uB73DUbVt9K+7L0t0WYw61syZf/G/vlMaZbL/37re/2mCMbAqUKAPZGAhISXsPN8AAbOmYEQvtUYj9hIlK+aJ+zXArGD2wnHWY7k8mBEDzf1CMQcVh5erCYyW/ifWLNWvPs3FDp6w9lNs26cufsbMgD+sW1RfuC96uM3hFNQV3iYHMa1FW+YJDv3URSlZaPK1Q8tGni82pT5+QyT//0off2MUGNaNoXXkvYhMSUXVR4BiDO1Yz3zLyxZXyIuFidtwacZp3GhoEpcN9m+tzB6gBCeVOuqN0XCK6vx/vU2gBucW+sbQTSFuftzAR3g3LwUZfkXeUF9sdrFbKQVtEP4s8ZGPPXoPAex0mip8IqVN+/MZfbPR4h5FAmvw4cP8yWVeQXAxekyyhsapubuL5eTivIKV7j4+PKChqhpWu2ZsxjZzrejs6kja6zP6N7uqDowk+8/CEm/n0U96wX6KfLzEdJwioRXly5d+JKaouAfHwPnvOMoYNmj/eESaiERBmseWvubbQcK04vh1v05KFGRY53J5UUVfFlyFGWXKnQ3LcUgltWMhDAL7an98xvY3yilf76GMOf6jdh3FvlVHvAN89Csj1iM1/oFKVdzldB9YA1m5aON0iiUBuu4TV63FtLIdK2RMDYK9Wsp2tzuinPiaJT2SJzW/jqOL5JGs8TRSgPbqzvNv0ZkNP8AMCaPxtW9Pt37ar1Pdv7a576Acz+fQ6ue0s/Pi/Xt39g/n0m/XwOjxcauv3q7HkZGE1mRuC4FVnESlm1xwLjB17CKjzaO9/oF48b8ipFr5iAu91OMm56BCcJyxOEnMGbhLVj8w3jEOIuHltEejRzB38f632quhRhn5eFV+x83IdZIvJUippLCq56sfLSREGs3Aj3DheqZOHJJwVUfioSXxWtdhJjJ2dkZw4cPR2BgoLjesWNHDBs2DA4ODuL6wIED0a1bN3HZ09MTDz/8MHx8fMR1pYiPDyUKTcaLdINqQygSXi4uKjxSm/MhTiyQbtokpH7Yv9mIiIjqQGIhFhkZiWbNNGO5nTp1QlhYmLjs4eEhbvPy8hLXlbLvrdEYkED3eDWU9fZ5EULsGvV5EUKsEoUXIcQqKRJep06d4kuEEGIZ9vvVZ0bvEzMyZUs1fpNkuak3n9ZXYx9fRQ8swuZnYuHKV8//NAGj55/ka4QYpkjNKy4uji/ZElOmbGnqWAA31ZlGH8CiMX74awKbjkZ4fZQEz/5vY/EIP81mQoxQJLyUvv/FutBMow3zHabfOxrVFa3vvsDvmc5o2zMBFF/EFDSTapOdSdXI8XX+/ArONNp1BlbP64JjHx9G56cHIlisup3HTxN44Ijbb0Hh6icxdV0u2ygUrca8Wwqx+smpqHxxM0Y7JONcu3hEupYg+YdD8LrzduE4smPU0hUzVs/DLYWr8eTUddAcUSCeRzh/3k+YMHo+qFFJJFY+2mjLM6ma0mxt7JlGg9B/shBgz7Km3Qxsz2yF/q/MREe+1Rj3mChcWzdP2M8ZMXeHC8f5CEmlQYi6X8cRHhiJ24LLcXZvYk1wEWKAIuGl3g2q5s6Eau7+htjCTKNCjWn5dF5LOoTEIxdw1T0A3Uxt153fg4/WFYqLJclbsfJkGnIKdX0bBev/ioWr+H6t6Dq0EGMGCuFJtS6iRZHw8vb25ktNga3MpGovhODa/Axirydj+XQKKGI6RcKrZ8+efEllNjeTqq1j/VxPaILryanQrnQRYoiV93nJRdn4TKoN0YgzjR46g4uV7vAJ5dN/PrAIrw8MrtctGQ8seh0Dg/Pw0wsGgot12G9PROLGxaC7KIiclYeXK1oNWM6/YOIdtC5fj4PVHeI7cCHpLJy7z9dsv8sV57YdQPV3F/Nw07s/G817UfPFFeJMoa1ux03sfdPf1XToG9suKN4wHClHXNDmMc37xJepX6JhwvFNUbxhJbKvda75Eo967q/fd/ji90y06r8MiYlCuIx2wLq1SSjlW40Swm5MLLs9NQj9lwn7s2OIrzWYKe/PF0NS+NO9LXomUHqRGorcKtFaqFpY/BuEdNwKQWzTA4s245nY60heXnNbBiGK1Lya1lefEdvyAHqHCzU0XSORxK4pEl62+XgQURu76XV74jOILaIbVEldNBkhIcQq2dBoIyHEnigSXmVlpj3wQgghSrHf+bwIIVZNkZoXu1WCEEIsSZHw6tKlC18ihBDLoA57QohVovAihFglRcJr7969fIkQQixDkfAqKCjgS4QQYhmKhFefPn34EiGEWIYi4eXiYtIkL4QQohjqsCeEWCVFwis/P58vEUKIZdDjQYQQq6RIzYseDyKEWJoi4UWPBxFCLI067AkhVonCixBilRQJL3o8iBBiaYqEl3qPB92LWbNm8VcPXiZh27TLLEl+frWvhRDbY8NfwMECIxvz5u3n6wwri+bLuvyk9X595Mdh+wRqHVcqk86v61oIIeaw4vDSFUTy8NEOGF3B0ZBQ0d5H3zqFFyGNyYo77DcLYTBPeB0Rllk4sWXtcNBXzshDhpp0hFgbRcJLvW/MbmgAyWtCLATrsz97v6k1qP7CcVl/nKGmKiGkIRQJr8OHD/MlS2Hhw0JBO4B0ddzLae8nqW+ASeQhqGtdqvmx2iEhREmK9Hl16NABqampfM2aaIdNfejaV16mb5kQogRFal7h4eF8ydJYKLCalL5XY/VlGQsuQkhjs+IOe4nUNNN+NVZTjYKLkKbAyu/zMhQa2tvYuikd5/puq5DoOo6ufeTnN3SdhJCGUCS82DTQZWVlfM2SjAWSsSCyFAovQpSmSHgRQoilKdLnxZqNhBBiSTbQYU8IsUcUXoQQq6RIeKn3eBAhxF4pEl6WfzyIEDvTaza+WP8OhrrzdUZXmR1RZLSRfQGH1QVYwER0GnMHqn6egtP7dNUco+A/bi7CgptrVvN+xT8fz0fdG0IGIHTqVASW69uuNtOvz+O+rxHp/7dJP0e3GVMxd2BrNOPrzPmfFmH0/By+Zoo4LNryIGJb8FVB/Y/RSLrdi9VzY1G4+j1MXVfCC3XhP8OlP/H06I04xUsVxULqjb6o3D4S496t/bsZ/f5WjHXfiZHj3kUT+K1ZlCI1L9v86rOjuLBqKPbMGYSUI8W8jNRSkoLlD89AQoLweuF3XO8zHRsX90IrvtkgFg7bH0T709/jYbY/f1k2uNpixup5pl+zKnph9qTb4XJ4KZ7VCi5mzbPrcNT/bnz0zlDYWwWMOuzNtgPpiwdhT5OsdTEWur6DmzFm+VE4xPTH7BEmfIzCvOHdLBt7PtyNPF5knfZh+mAheBur1jV6BG4JyMIf72yE7vrfGjy77iicbx6CJwJ4kZ2w3seDxGZfD1zeth9ug+6BlxMrLEXeDt4M1NEsdO6zDNHdypC2fBryXfj2A/vg2P2OuvvL6G5OmdasFM95W1s48nX9zc/axHO2y8Ipdq1FvFD8me5Bs8MzcWTbP9XrmmsXXDkme78p18eblPKsMfH6xGbjLUVY/cQqrKtOH00Tyu9P3vQTm163IVhqW7KamvT+YWOxZUIUriV/jyem6gkwA/sPW/QGRjkcR2b7rujcogTJP6TA686ewnuz8dPT72K+mCRazdLzUtOO1biexMDqA8tI5wjhzcYfpeOyjfJjax2j+ticeO0dcGxZKjpPkH4G+f4C7Z+PkzedWbPwvsr/w5jn9YUXMxrvbx0L9511m5W2TJGal3rz1/ujzRAhwNYKNQuxeXcNrW6bDh9PvtkoV7TqHdnA/Y03KzXB5YLslZrjiy8TgoEp3v0bCh1D0LJTTZPcOSIa7lXHkP1XTXCxIJOOnXKmNcLHv8uv39j1aYLL58IXOCjtr1Dz2D0gDK34B/PGXxZVNwmXnW6L8Z+OwwjWRlv/GV7fngXnmPvxVeLCuk03Y/sL3GPCUfXlZ9ie6YyYu0NwbPK3SLoSiKgHWBVEE1w1zdIPsf16HD5eMxThOIuFY2ZpyjKvokQI0Oqm61B5GLvz4/L9M33R/1W2PyMdQ7iupCtiSV2B6P+sEGA69xeu7/Xb4HlcOje7du0+v9Ho0aE5is7vMRBczBrsT62AZ1C8XTUdFQkv9myjOlhNaTakOzU0H3hvOLtp1o0zd39DBsA/ti3KD7xXffx6yfkFl3Id4dn+Dt4pHgXPsECUp6wWa1a1gozTFXh6db4VXg7HkL51La7yIiV16dsO/uUp2Lqipiaw/suDyHRug579NB+xgwsXY6DwwX2hOsRexWLe5Oxmwv44fxgfrisVF0uSd2PFqVzkFPCfZlgkOl5LwddzpVqdEDZbTuJKUDs8YPIMTkKNbvmnvKZ0FruO5OKquxe6m9xBZmD/bgHwrdVs3ofdJ69ogl9cF/QKgY9jEfLPaH5GYzx92gn/HdsPRcKrT58+fKkpcIOzWQMI5u7PBXSAc/NSlOVf5AX1JdSc9iTjelBXeLCaVEAftPS7hMLDmrBy8vKGY2kurkhNSiYnFeUVrnDx8eUF+jn7+9Y0ZZUifiCFj2xOGrwCvNCspBAH5O3Bgzm4eNUdPqG1P2JSiC1LckDM8GFizSqsHvvr0i2sJZq5R2L8VwuRKNTsxJfQTJUNbKpL/FkCET+R1ziFmubgqBbi707+IxP9bKvD3isALk6XUd7Qm2bN3V+uHkGi17E/UHhNU5NiNS3njJ3I5ZdWWViAKlc/tJA3cc0OTPOItSWhNnH0uxyk5RTWraWI4VaC/HTdNYn1u9NwRdgntCUatL/cwbRLuCofDa1+yfqcmgB33mxOfFvThJwmH23dnYH8Kk/4tDOtPlWUf0ZoS9gPGwqvKPjHx8A57zgK2AdcOzw6z0GEvOO8Dq39zbYDhenFcOv+HBpekduBC0l5cGv/ILzDPHH59M/VTbzy40dQ4tgZgb1v4iXC9Q/qD6+iAziv87612jT71zQxxQGCaA9xuUGGjcXrA1sj76cvxXA4uOsMLjhH4q7HpSGwtpjxbDyC81hTT1cPjrB9cEe0OH8G3zVofy3rU3DSIRLDZ2v1pdVyFmkXr8K9bQT66X9T4+DNWnm4Dq0zcKHpywqJeQSGBxJN7RuzLYqMNqoyh732SJugMvULJK+r6cOpNdLHRuJ+LUWb211xThyRqzvSVmt/HccXSSN64milge28OVcnFEwczasmXUeRjv2EQI4d1h3OfLXWsY1dP+s3k/9+hH2PHw9Fh4h0HDV1tLHWTaqsf0frhk4+oljdVJONyOm6ybXOiJ2B/dlo4wS/v4X1JAxd/SRuKdyCJ6ZmY6yw3OXY+7zTW2u0kdE+h/Z7tEcbZTep1hphFbfXHSk0ef88IYx1jXhqX9/o97F1rDt2jhwHvQOJprzHBlnvfF7ih9PQHfKENF06bzWRjbDWjDj2wuwv3kDfyu167qK3z9skGEWajXFxcXyJEGIKcUCCL1cTb9zV7tPbjbkf/Iqc1nfjrWl1G4+j3x+BqAs/4CU7Cy5GkfDy8fHhS4QQU6yfvgrbi8K1RkNDcFq76c3snouRr+2CU+/n6zyYPTAoBUuftb/nGhnrvcOeEGLXbOtWCUKI3bDeDntCiF1TpObl7e3NlwghxDIUCa+ePXvyJZXETMWKrYlITNyMD8YG80JCiC2zgT6vGEydeidanVmDMQn3YtJnmbycEGLLbCC8QhDoXYWMAztBsUWI/VAkvFSdvz4mHL58vj1CiP1QJLzoq88IIZamSHip+nhQSCC8qzJwYCc1GgmxJ4qElyqPB0kjjCNL8ea9k0D99ITYF+vtsE9ejMfvSkDCF654dfMHoDskCLEvioRXWZnJs1MpLyMbBY4h6N6P0osQe6JIeP3yyy98iRBCLEOR8LLNb8wmhDRlioRXly5d+JIKkk/hYgVfJoTYDevtsK+WgewCR4R07wfq9SLEfthAeCVj8eIfkdduNFbTg9mE2A1F5vNiU+IUFBTwNUIIaXyK1LwouAghlqZIeDWtr/snhNgDRcLLxcWFL6mDbtUgxP7YQIe9yrdqEGKK+NlYu34RHvDk601BU7ymelAkvPLz8/mS/Wn+2HTEfLMEsfwVPjGEb1FbKHwXLqy+rtj3h0O5ac/YV+QvxJqZdb8ElX0N/8bFvdCKrxunOVbimqEI5yVKYddi/LiNd/5qLCTe6IuqPe/iuyJeZgmjlmBrIpseXfP67HmtFsqeudie1RnPLHke1th2USS89u3bx5fUodazlSy4Og70waUvX0fSQ1PEV7b7ffDrxN+gqnRcnDFDvKbUQ1pfYmo12mLG6nn1DMOmJh6zJ/0Hrkc+wpR3LDnv3SgsecQTux5NQEKC8Fp1BH6DPsAirWrW2ilf4ojfIHyw6AFYWwVMkfBSu89JlWcrI4aidd8QlP/6Mc5tLOSFwOX5S5B7gq/YrFzkFFzly+bah+mDZyBh9Eac4iWW1cjnHzUCtwRm4893v4MlK11CLGHKXWNRnZdr1+HP7BZo17ufVkgJ7/vyCJrHDsYTVlb9UiS81O5zUiM8m/duD9fK48j9NoOX6CAEXLu1NU3K2JUT4Okn3zYLfnfK3yOs16q19UDrFbL9v5mHNkO9+DaBoeObROv49WxaugeECTUiTe1I3oQsyUlDnqxcbL7xr7SveZ9me/VX3ddqtknbJmJgcDO4x9yPr6T3bRyHEdXVMN7k03kMYwydX9DtXqzePg0zh7A/pXMI67XeZPz8o3qEoyJpCz7VrnSxpuSOz/D83exPqWknrEv/lMXtG2rVlOJnr8WODZo+qlFLtmLDorn4SPzWLOF9U1/nx5Edw1Rr9+NURRtEj9Cxo3gdwnE/a3pNS+qwb6Bmfl5w4Ms6sWB5+Q447F5U3aRMPdkaYfPlAeOPoPGRuDyHbX8XmeleCJooBQjrs3oInuc24AjfP+mhWTW1PJOObwgLrlGy4wvnr+iOziYF2FmkXZRqXn4I8G6GoKh44YPbFmG+zXi5RlD/6Zjg9zeeThBqN8uOomX/R3gAnMXCMbOEJs0MLEu6Ir63hrTtQ2zPvIqS5O/xMNufvYauwro89h4WHA+i/Wlpm/De63H42OQAM3R+SSD6P9sBxybz42f6ov+r0vFNOf8o9AhvjqLsPXpqXW0waFo4kh5jTbvZ2JUdiEFzTQ8Jj9hIlK2YJ+zXArGD2wrHWYUj+kJIrAFewZm/duq4lrXYf6oCnoHxVtV0tInwaop01cwubzyAYqc28Ogt1Z5Kkf/lMt7MTEfJsRxcc/OGsyx8nEI6w1VHGJl2fAP6xsDzhuPI+ugXVIkF6bi47RgqA9rDsz59dsMiEXT6EI61bIcHdKXG+T/xtNQkSytAwVU3BHR3FzeZRThvx2sp+HrubqGWxwhhtOUkrgTpuY4GKUHy8k8xX7z4s9h1JBdX3b3QndX8TDl/fCh8HIqRn3aZF2grRtJHU3jTbg8Sj+WhyjMQ8aYmyLk/8e53peJisVi7S0VugeZvszbW/xWN5uL79TdePXzC4MaXq+2Zi1EDhHAd+w6a2jdVKBJee/fu5Uv242puIa7xZV3EmtnlApTn8gLmeBYqKlzh3NqUDy/rcP8AmfntEPZB3Waducdv3lbY3y2i5tjs9fRNcOLbjUnLKYSzjz96h7VEWc5JpBc4C6HkKmy5jPx0zQeKKcm/gEt8GQc3Y8zANzF1nfkDCN2E8zZzj8T4r2TNtglRaMG3Nza1z286Ibi2jkN0RRI+mtL0AsgcioSX2o8HqRGeFWeF8HLTX8sRw02rFoWI1mjevBTlWaZ+eGtGDJMeWos8195o/3ofOApbzD2+eP2XjyNtktQklV7z6jHg4IG46Os4+d1BoVZyBcE9uyDUm11d4zuYdglXS1Kw/GHenKx+vctrSo3LpPPvSUf+NQ/4hNWpz1hIPGavHa0JrrHTjd6mUZyfJvzXYz0UCa9BgwbxJXWoEp67EpGb3gw+j0yo1cnuNnOKuF7x12mUOkXA70Hpvq9Q+D5+CzwK/kGubHTSdLmoKKjkywocf1cyiv6NQOtnNGGo1y1P4+0PP8SHCyaij3ZzJihGaOKUIF2oWh3cdQalEV3RucVl5BxQ6tYMTd+ae9sI9NO+V2J9Ck46RGL4bJVuozDp/Jq+pDbRI+rf2a0dfKOW4NW+gYb/rrSMWvIq+gZmY9skY8FloG9O6rDnAwVNiU30eanzbKWmVpR6qAWC5tQ0vQJLNmhqLsc34szKf9Ds9ul82zQENz+AY89+DdPmTtQeadTsf/p13kdl7PiykcgOXYVmZEBvdGbvqx6R3I+sx9eiqM19iK4+h/AyccRRrHkIf5acPY6drNPnYA6q+/BNIY7maZpbE2KFxlbQLfiYNb1qjSYKGTH9ByQJIVHdPKvezm5x+Ban28tGItlLu8NeOq70kvY38fz6mXb+tftPoaJNNHT1oRu2Fuv+zEbgoM+F4wrh8UAVVnx5xMR/OwIh7B6JZn+TbTDoczYKKb10jEaO6oHw5udwZJ2ORqUYosKfHu3Qu1/TSi9FpsRhNa9t27bxNctT+/yE6Meabm+gb9VPeLQJdnqzWhfrE/Pc9SjG6rmJlt2WMS66AkkfjcV0iz4iYJgiNS/6xmxC9NmDuR/8huzAQZhb7xuwGt+oJY8gOncbZuu9+1/TpNSMbDad4GIUCa/Dhw/zJXXY87OVxAqw2w1e2wXH+GlN7sHsga2P6R2FFG+KTRwnhltTrDUq0mzs0KEDUlNT+RohhDQ+RWpe4eGK3RXYIDSfFyH2xyZGG6nPjRD7YxPhRQixP4qEl1pf93/3gg2ae1c2fwD6xjNC7IsiHfbqisHUFQvQt+wbPDPpM2TyUkKIbVOk5qXu40HJSEzOhqN3iBXPtkkIqS/q8yKEWCUKL0KIVVIkvNS+VSH51EVU+Edg8M28gBBi82ygw15yNxZsmIbuZb/i+UfexN+8lBBimxSpean+pa93L8CGxJEofTMBCRRchNgFRcJL7cdzYsJ90fzCcWyh1CLEblCHPSHEKlF4EUKskiLhRbOYEkIsTZHwcnFx4UtqiEFCTCCqCjL49+cRQuyBIuGlzhdgSA9mL8bgVmfw/Xx6rpEQe2ITX8BBCLE/1GFPCLFKNnSHPSHEnlDNixBilSi8CCFWyazwGvjWd5ppmLd8iMdCeSEhhFiAAn1ekZj86Tu4s3I9Jk1ciXReSgghjUmBZmMKEg9nwcG7Dfx5CSGENDbq8yKEWCUKL0KIVVIkvFJOXUSZXwQGxfECQghpZMrUvLa/hAcSVsP5xUQkrnsNlGGEkMamzB32A9/CdzPa4vBLI/DGPl5GCCGNSJGaV2S4L1xyj2MbBRchxEKow54QYpUovAghVonCixBihYD/B88f42l4S80mAAAAAElFTkSuQmCC;" parent="WIyWlLk6GJQsqaUBKTNV-1" vertex="1">
          <mxGeometry x="570" y="581" width="303" height="489" as="geometry" />
        </mxCell>
        <mxCell id="gWqf_zS7A-Yer8n9UJmJ-50" value="로스트아크" style="rounded=0;whiteSpace=wrap;html=1;" parent="WIyWlLk6GJQsqaUBKTNV-1" vertex="1">
          <mxGeometry x="350" y="220" width="190" height="150" as="geometry" />
        </mxCell>
        <mxCell id="gWqf_zS7A-Yer8n9UJmJ-51" value="L2" style="rounded=0;whiteSpace=wrap;html=1;" parent="WIyWlLk6GJQsqaUBKTNV-1" vertex="1">
          <mxGeometry x="630" y="50" width="50" height="140" as="geometry" />
        </mxCell>
        <mxCell id="gWqf_zS7A-Yer8n9UJmJ-52" value="L1" style="rounded=0;whiteSpace=wrap;html=1;" parent="WIyWlLk6GJQsqaUBKTNV-1" vertex="1">
          <mxGeometry x="696.5" y="50" width="23.5" height="90" as="geometry" />
        </mxCell>
        <mxCell id="gWqf_zS7A-Yer8n9UJmJ-53" value="L3" style="rounded=0;whiteSpace=wrap;html=1;" parent="WIyWlLk6GJQsqaUBKTNV-1" vertex="1">
          <mxGeometry x="560" y="50" width="50" height="250" as="geometry" />
        </mxCell>
        <mxCell id="gWqf_zS7A-Yer8n9UJmJ-54" value="Cache" style="text;html=1;strokeColor=none;fillColor=none;align=center;verticalAlign=middle;whiteSpace=wrap;rounded=0;fontSize=20;" parent="WIyWlLk6GJQsqaUBKTNV-1" vertex="1">
          <mxGeometry x="560" y="10" width="60" height="30" as="geometry" />
        </mxCell>
        <mxCell id="gWqf_zS7A-Yer8n9UJmJ-56" value="공간 지역성 : 참조했던 위치와 가까울수록 그다음에 다시 참조할 가능성이 높다&lt;br&gt;&lt;br&gt;시간 지역성 : 최근에 참조했을 데이터일수록 그다음에 다시 참조할 가능성이 높다" style="rounded=1;whiteSpace=wrap;html=1;" parent="WIyWlLk6GJQsqaUBKTNV-1" vertex="1">
          <mxGeometry x="560" y="390" width="270" height="110" as="geometry" />
        </mxCell>
        <mxCell id="gWqf_zS7A-Yer8n9UJmJ-57" value="캐시라인 단위로 데이터를 쭉 읽어서 복사해둠." style="rounded=0;whiteSpace=wrap;html=1;" parent="WIyWlLk6GJQsqaUBKTNV-1" vertex="1">
          <mxGeometry x="630" width="270" height="40" as="geometry" />
        </mxCell>
        <mxCell id="JiBH7X0HfqX1xzHFeIxS-1" value="" style="rounded=0;whiteSpace=wrap;html=1;" parent="WIyWlLk6GJQsqaUBKTNV-1" vertex="1">
          <mxGeometry x="40" y="1200" width="40" height="40" as="geometry" />
        </mxCell>
        <mxCell id="JiBH7X0HfqX1xzHFeIxS-2" value="" style="rounded=0;whiteSpace=wrap;html=1;" parent="WIyWlLk6GJQsqaUBKTNV-1" vertex="1">
          <mxGeometry x="80" y="1200" width="40" height="40" as="geometry" />
        </mxCell>
        <mxCell id="JiBH7X0HfqX1xzHFeIxS-3" value="" style="rounded=0;whiteSpace=wrap;html=1;" parent="WIyWlLk6GJQsqaUBKTNV-1" vertex="1">
          <mxGeometry x="120" y="1200" width="40" height="40" as="geometry" />
        </mxCell>
        <mxCell id="JiBH7X0HfqX1xzHFeIxS-4" value="" style="rounded=0;whiteSpace=wrap;html=1;" parent="WIyWlLk6GJQsqaUBKTNV-1" vertex="1">
          <mxGeometry x="160" y="1200" width="40" height="40" as="geometry" />
        </mxCell>
        <mxCell id="JiBH7X0HfqX1xzHFeIxS-5" value="0x2312AC5C" style="text;html=1;strokeColor=none;fillColor=none;align=center;verticalAlign=middle;whiteSpace=wrap;rounded=0;" parent="WIyWlLk6GJQsqaUBKTNV-1" vertex="1">
          <mxGeometry x="40" y="1170" width="60" height="30" as="geometry" />
        </mxCell>
        <mxCell id="JiBH7X0HfqX1xzHFeIxS-6" value="" style="rounded=0;whiteSpace=wrap;html=1;" parent="WIyWlLk6GJQsqaUBKTNV-1" vertex="1">
          <mxGeometry x="40" y="1290" width="40" height="40" as="geometry" />
        </mxCell>
        <mxCell id="JiBH7X0HfqX1xzHFeIxS-7" value="" style="rounded=0;whiteSpace=wrap;html=1;" parent="WIyWlLk6GJQsqaUBKTNV-1" vertex="1">
          <mxGeometry x="80" y="1290" width="40" height="40" as="geometry" />
        </mxCell>
        <mxCell id="JiBH7X0HfqX1xzHFeIxS-8" value="" style="rounded=0;whiteSpace=wrap;html=1;" parent="WIyWlLk6GJQsqaUBKTNV-1" vertex="1">
          <mxGeometry x="120" y="1290" width="40" height="40" as="geometry" />
        </mxCell>
        <mxCell id="JiBH7X0HfqX1xzHFeIxS-9" value="" style="rounded=0;whiteSpace=wrap;html=1;" parent="WIyWlLk6GJQsqaUBKTNV-1" vertex="1">
          <mxGeometry x="160" y="1290" width="40" height="40" as="geometry" />
        </mxCell>
        <mxCell id="JiBH7X0HfqX1xzHFeIxS-10" value="" style="rounded=0;whiteSpace=wrap;html=1;" parent="WIyWlLk6GJQsqaUBKTNV-1" vertex="1">
          <mxGeometry x="200" y="1290" width="40" height="40" as="geometry" />
        </mxCell>
        <mxCell id="JiBH7X0HfqX1xzHFeIxS-11" value="" style="rounded=0;whiteSpace=wrap;html=1;" parent="WIyWlLk6GJQsqaUBKTNV-1" vertex="1">
          <mxGeometry x="240" y="1290" width="40" height="40" as="geometry" />
        </mxCell>
        <mxCell id="JiBH7X0HfqX1xzHFeIxS-12" value="" style="rounded=0;whiteSpace=wrap;html=1;" parent="WIyWlLk6GJQsqaUBKTNV-1" vertex="1">
          <mxGeometry x="280" y="1290" width="40" height="40" as="geometry" />
        </mxCell>
        <mxCell id="JiBH7X0HfqX1xzHFeIxS-13" value="" style="rounded=0;whiteSpace=wrap;html=1;" parent="WIyWlLk6GJQsqaUBKTNV-1" vertex="1">
          <mxGeometry x="320" y="1290" width="40" height="40" as="geometry" />
        </mxCell>
        <mxCell id="JiBH7X0HfqX1xzHFeIxS-14" value="" style="rounded=0;whiteSpace=wrap;html=1;" parent="WIyWlLk6GJQsqaUBKTNV-1" vertex="1">
          <mxGeometry x="360" y="1290" width="40" height="40" as="geometry" />
        </mxCell>
        <mxCell id="JiBH7X0HfqX1xzHFeIxS-15" value="" style="rounded=0;whiteSpace=wrap;html=1;" parent="WIyWlLk6GJQsqaUBKTNV-1" vertex="1">
          <mxGeometry x="400" y="1290" width="40" height="40" as="geometry" />
        </mxCell>
        <mxCell id="JiBH7X0HfqX1xzHFeIxS-16" value="" style="rounded=0;whiteSpace=wrap;html=1;" parent="WIyWlLk6GJQsqaUBKTNV-1" vertex="1">
          <mxGeometry x="440" y="1290" width="40" height="40" as="geometry" />
        </mxCell>
        <mxCell id="JiBH7X0HfqX1xzHFeIxS-17" value="" style="rounded=0;whiteSpace=wrap;html=1;" parent="WIyWlLk6GJQsqaUBKTNV-1" vertex="1">
          <mxGeometry x="480" y="1290" width="40" height="40" as="geometry" />
        </mxCell>
        <mxCell id="JiBH7X0HfqX1xzHFeIxS-18" value="0x2312CC5C" style="text;html=1;strokeColor=none;fillColor=none;align=center;verticalAlign=middle;whiteSpace=wrap;rounded=0;" parent="WIyWlLk6GJQsqaUBKTNV-1" vertex="1">
          <mxGeometry x="40" y="1260" width="60" height="30" as="geometry" />
        </mxCell>
        <mxCell id="JiBH7X0HfqX1xzHFeIxS-20" value="" style="endArrow=classic;startArrow=classic;html=1;rounded=0;" parent="WIyWlLk6GJQsqaUBKTNV-1" edge="1">
          <mxGeometry width="50" height="50" relative="1" as="geometry">
            <mxPoint x="40" y="1350" as="sourcePoint" />
            <mxPoint x="200" y="1350" as="targetPoint" />
          </mxGeometry>
        </mxCell>
        <mxCell id="JiBH7X0HfqX1xzHFeIxS-21" value="" style="endArrow=classic;startArrow=classic;html=1;rounded=0;" parent="WIyWlLk6GJQsqaUBKTNV-1" edge="1">
          <mxGeometry width="50" height="50" relative="1" as="geometry">
            <mxPoint x="200" y="1350" as="sourcePoint" />
            <mxPoint x="520" y="1350" as="targetPoint" />
          </mxGeometry>
        </mxCell>
        <mxCell id="JiBH7X0HfqX1xzHFeIxS-22" value="0x2312CC6C" style="text;html=1;strokeColor=none;fillColor=none;align=center;verticalAlign=middle;whiteSpace=wrap;rounded=0;" parent="WIyWlLk6GJQsqaUBKTNV-1" vertex="1">
          <mxGeometry x="200" y="1260" width="60" height="30" as="geometry" />
        </mxCell>
        <mxCell id="yTjbBZnUIRRuOPXFyYUr-0" value="자료구조" style="rounded=0;whiteSpace=wrap;html=1;" vertex="1" parent="WIyWlLk6GJQsqaUBKTNV-1">
          <mxGeometry x="960" y="5" width="150" height="65" as="geometry" />
        </mxCell>
        <mxCell id="yTjbBZnUIRRuOPXFyYUr-1" value="DynamicArrray&lt;br&gt;(동적배열)" style="rounded=0;whiteSpace=wrap;html=1;" vertex="1" parent="WIyWlLk6GJQsqaUBKTNV-1">
          <mxGeometry x="1400" y="164.37" width="120" height="60" as="geometry" />
        </mxCell>
        <mxCell id="yTjbBZnUIRRuOPXFyYUr-2" value="LinkedList" style="rounded=0;whiteSpace=wrap;html=1;" vertex="1" parent="WIyWlLk6GJQsqaUBKTNV-1">
          <mxGeometry x="1420" y="761.25" width="120" height="60" as="geometry" />
        </mxCell>
        <mxCell id="yTjbBZnUIRRuOPXFyYUr-3" value="Queue" style="rounded=0;whiteSpace=wrap;html=1;" vertex="1" parent="WIyWlLk6GJQsqaUBKTNV-1">
          <mxGeometry x="2080" y="160" width="120" height="60" as="geometry" />
        </mxCell>
        <mxCell id="yTjbBZnUIRRuOPXFyYUr-4" value="Stack" style="rounded=0;whiteSpace=wrap;html=1;" vertex="1" parent="WIyWlLk6GJQsqaUBKTNV-1">
          <mxGeometry x="2090" y="562.87" width="120" height="60" as="geometry" />
        </mxCell>
        <mxCell id="yTjbBZnUIRRuOPXFyYUr-5" value="HashSet" style="rounded=0;whiteSpace=wrap;html=1;" vertex="1" parent="WIyWlLk6GJQsqaUBKTNV-1">
          <mxGeometry x="2870" y="165" width="120" height="60" as="geometry" />
        </mxCell>
        <mxCell id="yTjbBZnUIRRuOPXFyYUr-6" value="Hashtable" style="rounded=0;whiteSpace=wrap;html=1;" vertex="1" parent="WIyWlLk6GJQsqaUBKTNV-1">
          <mxGeometry x="3110" y="165" width="120" height="60" as="geometry" />
        </mxCell>
        <mxCell id="yTjbBZnUIRRuOPXFyYUr-7" value="Tree" style="rounded=0;whiteSpace=wrap;html=1;" vertex="1" parent="WIyWlLk6GJQsqaUBKTNV-1">
          <mxGeometry x="3690" y="165" width="120" height="60" as="geometry" />
        </mxCell>
        <mxCell id="yTjbBZnUIRRuOPXFyYUr-8" value="Heap" style="rounded=0;whiteSpace=wrap;html=1;" vertex="1" parent="WIyWlLk6GJQsqaUBKTNV-1">
          <mxGeometry x="4350" y="165" width="120" height="60" as="geometry" />
        </mxCell>
        <mxCell id="yTjbBZnUIRRuOPXFyYUr-10" value="크키가 변하는 배열&lt;br&gt;공간이 모자라면 더 큰배열을 만들고 데이터 복제 후 배열 참조를 바꿈." style="text;html=1;strokeColor=none;fillColor=none;align=center;verticalAlign=middle;whiteSpace=wrap;rounded=0;" vertex="1" parent="WIyWlLk6GJQsqaUBKTNV-1">
          <mxGeometry x="1530" y="164.37" width="160" height="60" as="geometry" />
        </mxCell>
        <mxCell id="yTjbBZnUIRRuOPXFyYUr-11" value="탐색 : 인덱스 접근 O(1), 매치조건탐색시 처음부터 끝까지 순회하면서 찾아야함O(n)." style="text;html=1;strokeColor=none;fillColor=none;align=left;verticalAlign=middle;whiteSpace=wrap;rounded=0;" vertex="1" parent="WIyWlLk6GJQsqaUBKTNV-1">
          <mxGeometry x="1400" y="244.37" width="470" height="40" as="geometry" />
        </mxCell>
        <mxCell id="yTjbBZnUIRRuOPXFyYUr-12" value="삽입 : 공간이 모자라면 더큰배열 만들고 데이터 복제 후, 가장 마지막 아이템 뒤에 추가. 공간이 모자라지 않으면 그냥 제일 뒤에 추가. O(n)" style="text;html=1;strokeColor=none;fillColor=none;align=left;verticalAlign=middle;whiteSpace=wrap;rounded=0;" vertex="1" parent="WIyWlLk6GJQsqaUBKTNV-1">
          <mxGeometry x="1400" y="284.37" width="440" height="40" as="geometry" />
        </mxCell>
        <mxCell id="yTjbBZnUIRRuOPXFyYUr-13" value="삭제 : 특정 인덱스 위치의 아이템 삭제 후 그 뒤부터 끝까지 아이템들을 앞으로 밀착시킨다. O(n)" style="text;html=1;strokeColor=none;fillColor=none;align=left;verticalAlign=middle;whiteSpace=wrap;rounded=0;" vertex="1" parent="WIyWlLk6GJQsqaUBKTNV-1">
          <mxGeometry x="1400" y="324.37" width="440" height="40" as="geometry" />
        </mxCell>
        <mxCell id="yTjbBZnUIRRuOPXFyYUr-14" value="3" style="whiteSpace=wrap;html=1;aspect=fixed;" vertex="1" parent="WIyWlLk6GJQsqaUBKTNV-1">
          <mxGeometry x="1410" y="364.37" width="40" height="40" as="geometry" />
        </mxCell>
        <mxCell id="yTjbBZnUIRRuOPXFyYUr-15" value="4" style="whiteSpace=wrap;html=1;aspect=fixed;" vertex="1" parent="WIyWlLk6GJQsqaUBKTNV-1">
          <mxGeometry x="1450" y="364.37" width="40" height="40" as="geometry" />
        </mxCell>
        <mxCell id="yTjbBZnUIRRuOPXFyYUr-16" value="0" style="whiteSpace=wrap;html=1;aspect=fixed;" vertex="1" parent="WIyWlLk6GJQsqaUBKTNV-1">
          <mxGeometry x="1490" y="364.37" width="40" height="40" as="geometry" />
        </mxCell>
        <mxCell id="yTjbBZnUIRRuOPXFyYUr-17" value="0" style="whiteSpace=wrap;html=1;aspect=fixed;" vertex="1" parent="WIyWlLk6GJQsqaUBKTNV-1">
          <mxGeometry x="1530" y="364.37" width="40" height="40" as="geometry" />
        </mxCell>
        <mxCell id="yTjbBZnUIRRuOPXFyYUr-19" value="노드들을 연결시켜서 관리하는 자료구조&lt;br&gt;(노드 : 데이터가 있는 객체)" style="text;html=1;strokeColor=none;fillColor=none;align=center;verticalAlign=middle;whiteSpace=wrap;rounded=0;" vertex="1" parent="WIyWlLk6GJQsqaUBKTNV-1">
          <mxGeometry x="1560" y="761.25" width="160" height="60" as="geometry" />
        </mxCell>
        <mxCell id="yTjbBZnUIRRuOPXFyYUr-20" value="" style="ellipse;whiteSpace=wrap;html=1;aspect=fixed;" vertex="1" parent="WIyWlLk6GJQsqaUBKTNV-1">
          <mxGeometry x="1530" y="882.25" width="130" height="130" as="geometry" />
        </mxCell>
        <mxCell id="yTjbBZnUIRRuOPXFyYUr-21" value="Node" style="rounded=0;whiteSpace=wrap;html=1;" vertex="1" parent="WIyWlLk6GJQsqaUBKTNV-1">
          <mxGeometry x="1550" y="872.25" width="90" height="25" as="geometry" />
        </mxCell>
        <mxCell id="yTjbBZnUIRRuOPXFyYUr-22" value="T Value" style="rounded=0;whiteSpace=wrap;html=1;" vertex="1" parent="WIyWlLk6GJQsqaUBKTNV-1">
          <mxGeometry x="1550" y="909.75" width="90" height="25" as="geometry" />
        </mxCell>
        <mxCell id="yTjbBZnUIRRuOPXFyYUr-23" value="Node Prev" style="rounded=0;whiteSpace=wrap;html=1;" vertex="1" parent="WIyWlLk6GJQsqaUBKTNV-1">
          <mxGeometry x="1550" y="942.25" width="90" height="25" as="geometry" />
        </mxCell>
        <mxCell id="yTjbBZnUIRRuOPXFyYUr-24" value="Node Next" style="rounded=0;whiteSpace=wrap;html=1;" vertex="1" parent="WIyWlLk6GJQsqaUBKTNV-1">
          <mxGeometry x="1550" y="972.25" width="90" height="25" as="geometry" />
        </mxCell>
        <mxCell id="yTjbBZnUIRRuOPXFyYUr-25" value="" style="ellipse;whiteSpace=wrap;html=1;aspect=fixed;" vertex="1" parent="WIyWlLk6GJQsqaUBKTNV-1">
          <mxGeometry x="1710" y="882.25" width="130" height="130" as="geometry" />
        </mxCell>
        <mxCell id="yTjbBZnUIRRuOPXFyYUr-26" value="Node" style="rounded=0;whiteSpace=wrap;html=1;" vertex="1" parent="WIyWlLk6GJQsqaUBKTNV-1">
          <mxGeometry x="1730" y="872.25" width="90" height="25" as="geometry" />
        </mxCell>
        <mxCell id="yTjbBZnUIRRuOPXFyYUr-27" value="T Value" style="rounded=0;whiteSpace=wrap;html=1;" vertex="1" parent="WIyWlLk6GJQsqaUBKTNV-1">
          <mxGeometry x="1730" y="909.75" width="90" height="25" as="geometry" />
        </mxCell>
        <mxCell id="yTjbBZnUIRRuOPXFyYUr-28" value="Node Prev" style="rounded=0;whiteSpace=wrap;html=1;" vertex="1" parent="WIyWlLk6GJQsqaUBKTNV-1">
          <mxGeometry x="1730" y="942.25" width="90" height="25" as="geometry" />
        </mxCell>
        <mxCell id="yTjbBZnUIRRuOPXFyYUr-29" value="Node Next" style="rounded=0;whiteSpace=wrap;html=1;" vertex="1" parent="WIyWlLk6GJQsqaUBKTNV-1">
          <mxGeometry x="1730" y="972.25" width="90" height="25" as="geometry" />
        </mxCell>
        <mxCell id="yTjbBZnUIRRuOPXFyYUr-30" value="" style="ellipse;whiteSpace=wrap;html=1;aspect=fixed;" vertex="1" parent="WIyWlLk6GJQsqaUBKTNV-1">
          <mxGeometry x="1870" y="882.25" width="130" height="130" as="geometry" />
        </mxCell>
        <mxCell id="yTjbBZnUIRRuOPXFyYUr-31" value="Node" style="rounded=0;whiteSpace=wrap;html=1;" vertex="1" parent="WIyWlLk6GJQsqaUBKTNV-1">
          <mxGeometry x="1890" y="872.25" width="90" height="25" as="geometry" />
        </mxCell>
        <mxCell id="yTjbBZnUIRRuOPXFyYUr-32" value="T Value" style="rounded=0;whiteSpace=wrap;html=1;" vertex="1" parent="WIyWlLk6GJQsqaUBKTNV-1">
          <mxGeometry x="1890" y="909.75" width="90" height="25" as="geometry" />
        </mxCell>
        <mxCell id="yTjbBZnUIRRuOPXFyYUr-33" value="Node Prev" style="rounded=0;whiteSpace=wrap;html=1;" vertex="1" parent="WIyWlLk6GJQsqaUBKTNV-1">
          <mxGeometry x="1890" y="942.25" width="90" height="25" as="geometry" />
        </mxCell>
        <mxCell id="yTjbBZnUIRRuOPXFyYUr-34" value="Node Next" style="rounded=0;whiteSpace=wrap;html=1;" vertex="1" parent="WIyWlLk6GJQsqaUBKTNV-1">
          <mxGeometry x="1890" y="972.25" width="90" height="25" as="geometry" />
        </mxCell>
        <mxCell id="yTjbBZnUIRRuOPXFyYUr-36" value="" style="endArrow=classic;html=1;rounded=0;exitX=0;exitY=0.5;exitDx=0;exitDy=0;entryX=1;entryY=0.5;entryDx=0;entryDy=0;" edge="1" parent="WIyWlLk6GJQsqaUBKTNV-1" source="yTjbBZnUIRRuOPXFyYUr-28" target="yTjbBZnUIRRuOPXFyYUr-21">
          <mxGeometry width="50" height="50" relative="1" as="geometry">
            <mxPoint x="1810" y="871.25" as="sourcePoint" />
            <mxPoint x="1720" y="811.75" as="targetPoint" />
          </mxGeometry>
        </mxCell>
        <mxCell id="yTjbBZnUIRRuOPXFyYUr-37" value="" style="endArrow=classic;html=1;rounded=0;exitX=1;exitY=0.5;exitDx=0;exitDy=0;entryX=0;entryY=0.5;entryDx=0;entryDy=0;" edge="1" parent="WIyWlLk6GJQsqaUBKTNV-1" source="yTjbBZnUIRRuOPXFyYUr-29" target="yTjbBZnUIRRuOPXFyYUr-31">
          <mxGeometry width="50" height="50" relative="1" as="geometry">
            <mxPoint x="1740" y="965.25" as="sourcePoint" />
            <mxPoint x="1660" y="895.25" as="targetPoint" />
          </mxGeometry>
        </mxCell>
        <mxCell id="yTjbBZnUIRRuOPXFyYUr-38" value="" style="endArrow=classic;html=1;rounded=0;exitX=0;exitY=0.5;exitDx=0;exitDy=0;entryX=1;entryY=0.5;entryDx=0;entryDy=0;" edge="1" parent="WIyWlLk6GJQsqaUBKTNV-1" source="yTjbBZnUIRRuOPXFyYUr-33" target="yTjbBZnUIRRuOPXFyYUr-26">
          <mxGeometry width="50" height="50" relative="1" as="geometry">
            <mxPoint x="1830" y="995.25" as="sourcePoint" />
            <mxPoint x="1900" y="888.25" as="targetPoint" />
          </mxGeometry>
        </mxCell>
        <mxCell id="yTjbBZnUIRRuOPXFyYUr-39" value="탐색 :&amp;nbsp; First(Last) 부터 Next(Prev) 를 통해 순회하면서 원하는 데이터를 찾음. O(n)" style="text;html=1;strokeColor=none;fillColor=none;align=left;verticalAlign=middle;whiteSpace=wrap;rounded=0;" vertex="1" parent="WIyWlLk6GJQsqaUBKTNV-1">
          <mxGeometry x="1460" y="1092.5" width="440" height="40" as="geometry" />
        </mxCell>
        <mxCell id="yTjbBZnUIRRuOPXFyYUr-40" value="First&lt;br&gt;(Head)" style="rounded=0;whiteSpace=wrap;html=1;" vertex="1" parent="WIyWlLk6GJQsqaUBKTNV-1">
          <mxGeometry x="1410" y="1022.5" width="90" height="30" as="geometry" />
        </mxCell>
        <mxCell id="yTjbBZnUIRRuOPXFyYUr-41" value="Last&lt;br&gt;(Tail)" style="rounded=0;whiteSpace=wrap;html=1;" vertex="1" parent="WIyWlLk6GJQsqaUBKTNV-1">
          <mxGeometry x="1890" y="1022.25" width="90" height="30" as="geometry" />
        </mxCell>
        <mxCell id="yTjbBZnUIRRuOPXFyYUr-42" value="삽입 : AddFirst, AddLast, AddBefore, AddAfter 삽입하려는 위치에 앞뒤 노드의 연결을 새로 갱신해준다. O(1)" style="text;html=1;strokeColor=none;fillColor=none;align=left;verticalAlign=middle;whiteSpace=wrap;rounded=0;" vertex="1" parent="WIyWlLk6GJQsqaUBKTNV-1">
          <mxGeometry x="1460" y="1132.5" width="440" height="40" as="geometry" />
        </mxCell>
        <mxCell id="yTjbBZnUIRRuOPXFyYUr-47" value="" style="ellipse;whiteSpace=wrap;html=1;aspect=fixed;fillColor=#e3c800;fontColor=#000000;strokeColor=#B09500;" vertex="1" parent="WIyWlLk6GJQsqaUBKTNV-1">
          <mxGeometry x="1390" y="882.25" width="130" height="130" as="geometry" />
        </mxCell>
        <mxCell id="yTjbBZnUIRRuOPXFyYUr-48" value="Node" style="rounded=0;whiteSpace=wrap;html=1;" vertex="1" parent="WIyWlLk6GJQsqaUBKTNV-1">
          <mxGeometry x="1410" y="872.25" width="90" height="25" as="geometry" />
        </mxCell>
        <mxCell id="yTjbBZnUIRRuOPXFyYUr-49" value="T Value" style="rounded=0;whiteSpace=wrap;html=1;" vertex="1" parent="WIyWlLk6GJQsqaUBKTNV-1">
          <mxGeometry x="1410" y="909.75" width="90" height="25" as="geometry" />
        </mxCell>
        <mxCell id="yTjbBZnUIRRuOPXFyYUr-50" value="Node Prev" style="rounded=0;whiteSpace=wrap;html=1;" vertex="1" parent="WIyWlLk6GJQsqaUBKTNV-1">
          <mxGeometry x="1410" y="942.25" width="90" height="25" as="geometry" />
        </mxCell>
        <mxCell id="yTjbBZnUIRRuOPXFyYUr-51" value="Node Next" style="rounded=0;whiteSpace=wrap;html=1;" vertex="1" parent="WIyWlLk6GJQsqaUBKTNV-1">
          <mxGeometry x="1410" y="972.25" width="90" height="25" as="geometry" />
        </mxCell>
        <mxCell id="yTjbBZnUIRRuOPXFyYUr-52" value="" style="endArrow=classic;html=1;rounded=0;exitX=1;exitY=0.5;exitDx=0;exitDy=0;entryX=0;entryY=0.5;entryDx=0;entryDy=0;" edge="1" parent="WIyWlLk6GJQsqaUBKTNV-1" source="yTjbBZnUIRRuOPXFyYUr-51" target="yTjbBZnUIRRuOPXFyYUr-21">
          <mxGeometry width="50" height="50" relative="1" as="geometry">
            <mxPoint x="1650" y="995.25" as="sourcePoint" />
            <mxPoint x="1730" y="895.25" as="targetPoint" />
          </mxGeometry>
        </mxCell>
        <mxCell id="yTjbBZnUIRRuOPXFyYUr-53" value="" style="endArrow=classic;html=1;rounded=0;exitX=0;exitY=0.5;exitDx=0;exitDy=0;entryX=1;entryY=0.5;entryDx=0;entryDy=0;" edge="1" parent="WIyWlLk6GJQsqaUBKTNV-1" source="yTjbBZnUIRRuOPXFyYUr-23" target="yTjbBZnUIRRuOPXFyYUr-48">
          <mxGeometry width="50" height="50" relative="1" as="geometry">
            <mxPoint x="1510" y="995.25" as="sourcePoint" />
            <mxPoint x="1560" y="895.25" as="targetPoint" />
          </mxGeometry>
        </mxCell>
        <mxCell id="yTjbBZnUIRRuOPXFyYUr-60" value="" style="endArrow=classic;html=1;rounded=0;exitX=1;exitY=0.5;exitDx=0;exitDy=0;entryX=0;entryY=0.5;entryDx=0;entryDy=0;" edge="1" parent="WIyWlLk6GJQsqaUBKTNV-1" source="yTjbBZnUIRRuOPXFyYUr-24" target="yTjbBZnUIRRuOPXFyYUr-26">
          <mxGeometry width="50" height="50" relative="1" as="geometry">
            <mxPoint x="1630" y="901.25" as="sourcePoint" />
            <mxPoint x="1820" y="811.75" as="targetPoint" />
          </mxGeometry>
        </mxCell>
        <mxCell id="yTjbBZnUIRRuOPXFyYUr-62" value="삭제 : 삭제하려는 위치의 앞뒤 노드의 연결을 새로 갱신해준다. O(1)" style="text;html=1;strokeColor=none;fillColor=none;align=left;verticalAlign=middle;whiteSpace=wrap;rounded=0;" vertex="1" parent="WIyWlLk6GJQsqaUBKTNV-1">
          <mxGeometry x="1460" y="1176.88" width="440" height="40" as="geometry" />
        </mxCell>
        <mxCell id="yTjbBZnUIRRuOPXFyYUr-69" value="4" style="whiteSpace=wrap;html=1;aspect=fixed;" vertex="1" parent="WIyWlLk6GJQsqaUBKTNV-1">
          <mxGeometry x="1570" y="364.37" width="40" height="40" as="geometry" />
        </mxCell>
        <mxCell id="yTjbBZnUIRRuOPXFyYUr-70" value="7" style="whiteSpace=wrap;html=1;aspect=fixed;" vertex="1" parent="WIyWlLk6GJQsqaUBKTNV-1">
          <mxGeometry x="1610" y="364.37" width="40" height="40" as="geometry" />
        </mxCell>
        <mxCell id="yTjbBZnUIRRuOPXFyYUr-71" value="8" style="whiteSpace=wrap;html=1;aspect=fixed;" vertex="1" parent="WIyWlLk6GJQsqaUBKTNV-1">
          <mxGeometry x="1651" y="364.37" width="40" height="40" as="geometry" />
        </mxCell>
        <mxCell id="yTjbBZnUIRRuOPXFyYUr-72" value="1" style="whiteSpace=wrap;html=1;aspect=fixed;" vertex="1" parent="WIyWlLk6GJQsqaUBKTNV-1">
          <mxGeometry x="1690" y="364.37" width="40" height="40" as="geometry" />
        </mxCell>
        <mxCell id="yTjbBZnUIRRuOPXFyYUr-73" value="3" style="whiteSpace=wrap;html=1;aspect=fixed;" vertex="1" parent="WIyWlLk6GJQsqaUBKTNV-1">
          <mxGeometry x="1410" y="414.37" width="40" height="40" as="geometry" />
        </mxCell>
        <mxCell id="yTjbBZnUIRRuOPXFyYUr-74" value="4" style="whiteSpace=wrap;html=1;aspect=fixed;" vertex="1" parent="WIyWlLk6GJQsqaUBKTNV-1">
          <mxGeometry x="1450" y="414.37" width="40" height="40" as="geometry" />
        </mxCell>
        <mxCell id="yTjbBZnUIRRuOPXFyYUr-75" value="0" style="whiteSpace=wrap;html=1;aspect=fixed;" vertex="1" parent="WIyWlLk6GJQsqaUBKTNV-1">
          <mxGeometry x="1490" y="414.37" width="40" height="40" as="geometry" />
        </mxCell>
        <mxCell id="yTjbBZnUIRRuOPXFyYUr-76" value="0" style="whiteSpace=wrap;html=1;aspect=fixed;" vertex="1" parent="WIyWlLk6GJQsqaUBKTNV-1">
          <mxGeometry x="1530" y="414.37" width="40" height="40" as="geometry" />
        </mxCell>
        <mxCell id="yTjbBZnUIRRuOPXFyYUr-77" value="4" style="whiteSpace=wrap;html=1;aspect=fixed;" vertex="1" parent="WIyWlLk6GJQsqaUBKTNV-1">
          <mxGeometry x="1570" y="414.37" width="40" height="40" as="geometry" />
        </mxCell>
        <mxCell id="yTjbBZnUIRRuOPXFyYUr-78" value="7" style="whiteSpace=wrap;html=1;aspect=fixed;" vertex="1" parent="WIyWlLk6GJQsqaUBKTNV-1">
          <mxGeometry x="1610" y="414.37" width="40" height="40" as="geometry" />
        </mxCell>
        <mxCell id="yTjbBZnUIRRuOPXFyYUr-79" value="8" style="whiteSpace=wrap;html=1;aspect=fixed;" vertex="1" parent="WIyWlLk6GJQsqaUBKTNV-1">
          <mxGeometry x="1651" y="414.37" width="40" height="40" as="geometry" />
        </mxCell>
        <mxCell id="yTjbBZnUIRRuOPXFyYUr-80" value="4" style="whiteSpace=wrap;html=1;aspect=fixed;" vertex="1" parent="WIyWlLk6GJQsqaUBKTNV-1">
          <mxGeometry x="1690" y="414.37" width="40" height="40" as="geometry" />
        </mxCell>
        <mxCell id="yTjbBZnUIRRuOPXFyYUr-81" value="1" style="whiteSpace=wrap;html=1;aspect=fixed;" vertex="1" parent="WIyWlLk6GJQsqaUBKTNV-1">
          <mxGeometry x="1730" y="414.37" width="40" height="40" as="geometry" />
        </mxCell>
        <mxCell id="yTjbBZnUIRRuOPXFyYUr-82" value="4" style="whiteSpace=wrap;html=1;aspect=fixed;" vertex="1" parent="WIyWlLk6GJQsqaUBKTNV-1">
          <mxGeometry x="1770" y="414.37" width="40" height="40" as="geometry" />
        </mxCell>
        <mxCell id="yTjbBZnUIRRuOPXFyYUr-83" value="0" style="whiteSpace=wrap;html=1;aspect=fixed;" vertex="1" parent="WIyWlLk6GJQsqaUBKTNV-1">
          <mxGeometry x="1810" y="414.37" width="40" height="40" as="geometry" />
        </mxCell>
        <mxCell id="yTjbBZnUIRRuOPXFyYUr-84" value="0" style="whiteSpace=wrap;html=1;aspect=fixed;" vertex="1" parent="WIyWlLk6GJQsqaUBKTNV-1">
          <mxGeometry x="1850" y="414.37" width="40" height="40" as="geometry" />
        </mxCell>
        <mxCell id="yTjbBZnUIRRuOPXFyYUr-85" value="4" style="whiteSpace=wrap;html=1;aspect=fixed;" vertex="1" parent="WIyWlLk6GJQsqaUBKTNV-1">
          <mxGeometry x="1890" y="414.37" width="40" height="40" as="geometry" />
        </mxCell>
        <mxCell id="yTjbBZnUIRRuOPXFyYUr-86" value="7" style="whiteSpace=wrap;html=1;aspect=fixed;" vertex="1" parent="WIyWlLk6GJQsqaUBKTNV-1">
          <mxGeometry x="1930" y="414.37" width="40" height="40" as="geometry" />
        </mxCell>
        <mxCell id="yTjbBZnUIRRuOPXFyYUr-87" value="8" style="whiteSpace=wrap;html=1;aspect=fixed;" vertex="1" parent="WIyWlLk6GJQsqaUBKTNV-1">
          <mxGeometry x="1971" y="414.37" width="40" height="40" as="geometry" />
        </mxCell>
        <mxCell id="yTjbBZnUIRRuOPXFyYUr-88" value="1" style="whiteSpace=wrap;html=1;aspect=fixed;" vertex="1" parent="WIyWlLk6GJQsqaUBKTNV-1">
          <mxGeometry x="2010" y="414.37" width="40" height="40" as="geometry" />
        </mxCell>
        <mxCell id="yTjbBZnUIRRuOPXFyYUr-89" value="" style="shape=image;verticalLabelPosition=bottom;labelBackgroundColor=default;verticalAlign=top;aspect=fixed;imageAspect=0;image=https://velog.velcdn.com/images/kyunghwan1207/post/4b7f4cfe-3b66-4c16-9533-2e8643fa3c6a/big-o.jpeg;" vertex="1" parent="WIyWlLk6GJQsqaUBKTNV-1">
          <mxGeometry x="965.58" y="250" width="404.42" height="303.63" as="geometry" />
        </mxCell>
        <mxCell id="yTjbBZnUIRRuOPXFyYUr-90" value="시간복잡도&lt;br&gt;&amp;nbsp;(Time complexity)" style="rounded=0;whiteSpace=wrap;html=1;" vertex="1" parent="WIyWlLk6GJQsqaUBKTNV-1">
          <mxGeometry x="975" y="164.37" width="120" height="60" as="geometry" />
        </mxCell>
        <mxCell id="yTjbBZnUIRRuOPXFyYUr-91" value="&lt;p&gt;O(N),  Big-O 노테이션 : 최악의 경우&lt;/p&gt;&lt;p&gt;θ(N), Big-θ 노테이션 : 평균의 경우&lt;br&gt;&lt;/p&gt;&lt;p&gt;&lt;span style=&quot;background-color: initial;&quot;&gt;Ω(N), Big-Ω 노테이션 : 최선의 경우&lt;/span&gt;&lt;/p&gt;" style="text;html=1;strokeColor=none;fillColor=none;align=center;verticalAlign=middle;whiteSpace=wrap;rounded=0;" vertex="1" parent="WIyWlLk6GJQsqaUBKTNV-1">
          <mxGeometry x="1110" y="165" width="220" height="75" as="geometry" />
        </mxCell>
        <mxCell id="yTjbBZnUIRRuOPXFyYUr-93" value="선입선출 (First-In, First-Out)" style="text;html=1;strokeColor=none;fillColor=none;align=center;verticalAlign=middle;whiteSpace=wrap;rounded=0;" vertex="1" parent="WIyWlLk6GJQsqaUBKTNV-1">
          <mxGeometry x="2210" y="160" width="160" height="60" as="geometry" />
        </mxCell>
        <mxCell id="yTjbBZnUIRRuOPXFyYUr-94" value="1" style="rounded=0;whiteSpace=wrap;html=1;" vertex="1" parent="WIyWlLk6GJQsqaUBKTNV-1">
          <mxGeometry x="2120" y="240" width="20" height="70" as="geometry" />
        </mxCell>
        <mxCell id="yTjbBZnUIRRuOPXFyYUr-95" value="1" style="rounded=0;whiteSpace=wrap;html=1;" vertex="1" parent="WIyWlLk6GJQsqaUBKTNV-1">
          <mxGeometry x="2170" y="240" width="20" height="70" as="geometry" />
        </mxCell>
        <mxCell id="yTjbBZnUIRRuOPXFyYUr-96" value="2" style="rounded=0;whiteSpace=wrap;html=1;" vertex="1" parent="WIyWlLk6GJQsqaUBKTNV-1">
          <mxGeometry x="2190" y="240" width="20" height="70" as="geometry" />
        </mxCell>
        <mxCell id="yTjbBZnUIRRuOPXFyYUr-97" value="1" style="rounded=0;whiteSpace=wrap;html=1;" vertex="1" parent="WIyWlLk6GJQsqaUBKTNV-1">
          <mxGeometry x="2250" y="240" width="20" height="70" as="geometry" />
        </mxCell>
        <mxCell id="yTjbBZnUIRRuOPXFyYUr-98" value="2" style="rounded=0;whiteSpace=wrap;html=1;" vertex="1" parent="WIyWlLk6GJQsqaUBKTNV-1">
          <mxGeometry x="2270" y="240" width="20" height="70" as="geometry" />
        </mxCell>
        <mxCell id="yTjbBZnUIRRuOPXFyYUr-99" value="3" style="rounded=0;whiteSpace=wrap;html=1;" vertex="1" parent="WIyWlLk6GJQsqaUBKTNV-1">
          <mxGeometry x="2290" y="240" width="20" height="70" as="geometry" />
        </mxCell>
        <mxCell id="yTjbBZnUIRRuOPXFyYUr-100" value="1" style="rounded=0;whiteSpace=wrap;html=1;rotation=-30;" vertex="1" parent="WIyWlLk6GJQsqaUBKTNV-1">
          <mxGeometry x="2100" y="334.37" width="20" height="70" as="geometry" />
        </mxCell>
        <mxCell id="yTjbBZnUIRRuOPXFyYUr-101" value="2" style="rounded=0;whiteSpace=wrap;html=1;" vertex="1" parent="WIyWlLk6GJQsqaUBKTNV-1">
          <mxGeometry x="2140" y="324.37" width="20" height="70" as="geometry" />
        </mxCell>
        <mxCell id="yTjbBZnUIRRuOPXFyYUr-102" value="3" style="rounded=0;whiteSpace=wrap;html=1;" vertex="1" parent="WIyWlLk6GJQsqaUBKTNV-1">
          <mxGeometry x="2160" y="324.37" width="20" height="70" as="geometry" />
        </mxCell>
        <mxCell id="yTjbBZnUIRRuOPXFyYUr-103" value="2" style="rounded=0;whiteSpace=wrap;html=1;rotation=-35;" vertex="1" parent="WIyWlLk6GJQsqaUBKTNV-1">
          <mxGeometry x="2240" y="334.37" width="20" height="70" as="geometry" />
        </mxCell>
        <mxCell id="yTjbBZnUIRRuOPXFyYUr-104" value="3" style="rounded=0;whiteSpace=wrap;html=1;" vertex="1" parent="WIyWlLk6GJQsqaUBKTNV-1">
          <mxGeometry x="2280" y="324.37" width="20" height="70" as="geometry" />
        </mxCell>
        <mxCell id="yTjbBZnUIRRuOPXFyYUr-105" value="3" style="rounded=0;whiteSpace=wrap;html=1;rotation=-30;" vertex="1" parent="WIyWlLk6GJQsqaUBKTNV-1">
          <mxGeometry x="2380" y="324.37" width="20" height="70" as="geometry" />
        </mxCell>
        <mxCell id="yTjbBZnUIRRuOPXFyYUr-106" value="탐색 : queue 는 가장 앞에있는 자료만 참조하므로 O(1)" style="text;html=1;strokeColor=none;fillColor=none;align=center;verticalAlign=middle;whiteSpace=wrap;rounded=0;" vertex="1" parent="WIyWlLk6GJQsqaUBKTNV-1">
          <mxGeometry x="2120" y="424.37" width="330" height="30" as="geometry" />
        </mxCell>
        <mxCell id="yTjbBZnUIRRuOPXFyYUr-107" value="삽입 : 배열로 구현되어있을때 공간이 모자라면 늘려주는 과정이 필요하므로 O(n),θ(1)&lt;br&gt;. LinkedList 로 구현되어있으면 O(1)." style="text;html=1;strokeColor=none;fillColor=none;align=center;verticalAlign=middle;whiteSpace=wrap;rounded=0;" vertex="1" parent="WIyWlLk6GJQsqaUBKTNV-1">
          <mxGeometry x="2120" y="454.37" width="460" height="30" as="geometry" />
        </mxCell>
        <mxCell id="yTjbBZnUIRRuOPXFyYUr-108" value="삭제 : 배열로 되어있어도 삭제시 아이템을 당기지않고, 가리키는 포인터만 수정하므로 O(1)" style="text;html=1;strokeColor=none;fillColor=none;align=center;verticalAlign=middle;whiteSpace=wrap;rounded=0;" vertex="1" parent="WIyWlLk6GJQsqaUBKTNV-1">
          <mxGeometry x="2120" y="489.37" width="330" height="30" as="geometry" />
        </mxCell>
        <mxCell id="yTjbBZnUIRRuOPXFyYUr-109" value="후입선출 (Last-In, First-Out)" style="text;html=1;strokeColor=none;fillColor=none;align=center;verticalAlign=middle;whiteSpace=wrap;rounded=0;" vertex="1" parent="WIyWlLk6GJQsqaUBKTNV-1">
          <mxGeometry x="2220" y="562.87" width="160" height="60" as="geometry" />
        </mxCell>
        <mxCell id="yTjbBZnUIRRuOPXFyYUr-110" value="1" style="rounded=0;whiteSpace=wrap;html=1;" vertex="1" parent="WIyWlLk6GJQsqaUBKTNV-1">
          <mxGeometry x="2115" y="667.5" width="70" height="17.87" as="geometry" />
        </mxCell>
        <mxCell id="yTjbBZnUIRRuOPXFyYUr-111" value="1" style="rounded=0;whiteSpace=wrap;html=1;" vertex="1" parent="WIyWlLk6GJQsqaUBKTNV-1">
          <mxGeometry x="2220" y="667.13" width="70" height="17.87" as="geometry" />
        </mxCell>
        <mxCell id="yTjbBZnUIRRuOPXFyYUr-112" value="2" style="rounded=0;whiteSpace=wrap;html=1;" vertex="1" parent="WIyWlLk6GJQsqaUBKTNV-1">
          <mxGeometry x="2220" y="649.26" width="70" height="17.87" as="geometry" />
        </mxCell>
        <mxCell id="yTjbBZnUIRRuOPXFyYUr-113" value="1" style="rounded=0;whiteSpace=wrap;html=1;" vertex="1" parent="WIyWlLk6GJQsqaUBKTNV-1">
          <mxGeometry x="2330" y="667.13" width="70" height="17.87" as="geometry" />
        </mxCell>
        <mxCell id="yTjbBZnUIRRuOPXFyYUr-114" value="2" style="rounded=0;whiteSpace=wrap;html=1;" vertex="1" parent="WIyWlLk6GJQsqaUBKTNV-1">
          <mxGeometry x="2330" y="649.26" width="70" height="17.87" as="geometry" />
        </mxCell>
        <mxCell id="yTjbBZnUIRRuOPXFyYUr-115" value="3" style="rounded=0;whiteSpace=wrap;html=1;" vertex="1" parent="WIyWlLk6GJQsqaUBKTNV-1">
          <mxGeometry x="2330" y="630" width="70" height="17.87" as="geometry" />
        </mxCell>
        <mxCell id="yTjbBZnUIRRuOPXFyYUr-116" value="1" style="rounded=0;whiteSpace=wrap;html=1;" vertex="1" parent="WIyWlLk6GJQsqaUBKTNV-1">
          <mxGeometry x="2115" y="750.88" width="70" height="17.87" as="geometry" />
        </mxCell>
        <mxCell id="yTjbBZnUIRRuOPXFyYUr-117" value="2" style="rounded=0;whiteSpace=wrap;html=1;" vertex="1" parent="WIyWlLk6GJQsqaUBKTNV-1">
          <mxGeometry x="2115" y="733.01" width="70" height="17.87" as="geometry" />
        </mxCell>
        <mxCell id="yTjbBZnUIRRuOPXFyYUr-118" value="3" style="rounded=0;whiteSpace=wrap;html=1;rotation=15;" vertex="1" parent="WIyWlLk6GJQsqaUBKTNV-1">
          <mxGeometry x="2130" y="707.5" width="70" height="17.87" as="geometry" />
        </mxCell>
        <mxCell id="yTjbBZnUIRRuOPXFyYUr-119" value="1" style="rounded=0;whiteSpace=wrap;html=1;" vertex="1" parent="WIyWlLk6GJQsqaUBKTNV-1">
          <mxGeometry x="2225" y="747.87" width="70" height="17.87" as="geometry" />
        </mxCell>
        <mxCell id="yTjbBZnUIRRuOPXFyYUr-120" value="2" style="rounded=0;whiteSpace=wrap;html=1;rotation=15;" vertex="1" parent="WIyWlLk6GJQsqaUBKTNV-1">
          <mxGeometry x="2240" y="725.37" width="70" height="17.87" as="geometry" />
        </mxCell>
        <mxCell id="yTjbBZnUIRRuOPXFyYUr-121" value="1" style="rounded=0;whiteSpace=wrap;html=1;rotation=15;" vertex="1" parent="WIyWlLk6GJQsqaUBKTNV-1">
          <mxGeometry x="2340" y="745.44" width="70" height="17.87" as="geometry" />
        </mxCell>
        <mxCell id="yTjbBZnUIRRuOPXFyYUr-122" value="탐색 : Stack 는 가장 뒤에있는 자료만 참조하므로 O(1)" style="text;html=1;strokeColor=none;fillColor=none;align=center;verticalAlign=middle;whiteSpace=wrap;rounded=0;" vertex="1" parent="WIyWlLk6GJQsqaUBKTNV-1">
          <mxGeometry x="2120" y="801.25" width="330" height="30" as="geometry" />
        </mxCell>
        <mxCell id="yTjbBZnUIRRuOPXFyYUr-123" value="삽입 : 배열로구현되어있으므로 공간이 모자라면 늘려줘야하는 상황이 생김. O(n) . θ(1)" style="text;html=1;strokeColor=none;fillColor=none;align=center;verticalAlign=middle;whiteSpace=wrap;rounded=0;" vertex="1" parent="WIyWlLk6GJQsqaUBKTNV-1">
          <mxGeometry x="2120" y="831.25" width="330" height="30" as="geometry" />
        </mxCell>
        <mxCell id="yTjbBZnUIRRuOPXFyYUr-125" value="삭제 : 가장 뒤에있는 아이템만 지우면 되므로 O(1)" style="text;html=1;strokeColor=none;fillColor=none;align=center;verticalAlign=middle;whiteSpace=wrap;rounded=0;" vertex="1" parent="WIyWlLk6GJQsqaUBKTNV-1">
          <mxGeometry x="2120" y="870" width="330" height="30" as="geometry" />
        </mxCell>
        <mxCell id="yTjbBZnUIRRuOPXFyYUr-126" value="index" style="rounded=0;whiteSpace=wrap;html=1;" vertex="1" parent="WIyWlLk6GJQsqaUBKTNV-1">
          <mxGeometry x="2900" y="239.69" width="40" height="30" as="geometry" />
        </mxCell>
        <mxCell id="yTjbBZnUIRRuOPXFyYUr-127" value="value" style="rounded=0;whiteSpace=wrap;html=1;" vertex="1" parent="WIyWlLk6GJQsqaUBKTNV-1">
          <mxGeometry x="2940" y="239.69" width="40" height="30" as="geometry" />
        </mxCell>
        <mxCell id="yTjbBZnUIRRuOPXFyYUr-128" value="0" style="rounded=0;whiteSpace=wrap;html=1;" vertex="1" parent="WIyWlLk6GJQsqaUBKTNV-1">
          <mxGeometry x="2900" y="269.69" width="40" height="30" as="geometry" />
        </mxCell>
        <mxCell id="yTjbBZnUIRRuOPXFyYUr-129" value="김수민" style="rounded=0;whiteSpace=wrap;html=1;" vertex="1" parent="WIyWlLk6GJQsqaUBKTNV-1">
          <mxGeometry x="2990" y="240.32" width="40" height="30" as="geometry" />
        </mxCell>
        <mxCell id="yTjbBZnUIRRuOPXFyYUr-130" value="1" style="rounded=0;whiteSpace=wrap;html=1;" vertex="1" parent="WIyWlLk6GJQsqaUBKTNV-1">
          <mxGeometry x="2900" y="299.69" width="40" height="30" as="geometry" />
        </mxCell>
        <mxCell id="yTjbBZnUIRRuOPXFyYUr-131" value="김동영" style="rounded=0;whiteSpace=wrap;html=1;" vertex="1" parent="WIyWlLk6GJQsqaUBKTNV-1">
          <mxGeometry x="2990" y="270.32" width="40" height="30" as="geometry" />
        </mxCell>
        <mxCell id="yTjbBZnUIRRuOPXFyYUr-132" value="2" style="rounded=0;whiteSpace=wrap;html=1;" vertex="1" parent="WIyWlLk6GJQsqaUBKTNV-1">
          <mxGeometry x="2900" y="329.06" width="40" height="30" as="geometry" />
        </mxCell>
        <mxCell id="yTjbBZnUIRRuOPXFyYUr-133" value="김기찬" style="rounded=0;whiteSpace=wrap;html=1;" vertex="1" parent="WIyWlLk6GJQsqaUBKTNV-1">
          <mxGeometry x="2990" y="299.69" width="40" height="30" as="geometry" />
        </mxCell>
        <mxCell id="yTjbBZnUIRRuOPXFyYUr-134" value="3" style="rounded=0;whiteSpace=wrap;html=1;" vertex="1" parent="WIyWlLk6GJQsqaUBKTNV-1">
          <mxGeometry x="2900" y="359.06" width="40" height="30" as="geometry" />
        </mxCell>
        <mxCell id="yTjbBZnUIRRuOPXFyYUr-135" value="김채림" style="rounded=0;whiteSpace=wrap;html=1;" vertex="1" parent="WIyWlLk6GJQsqaUBKTNV-1">
          <mxGeometry x="2990" y="329.69" width="40" height="30" as="geometry" />
        </mxCell>
        <mxCell id="yTjbBZnUIRRuOPXFyYUr-136" value="4" style="rounded=0;whiteSpace=wrap;html=1;" vertex="1" parent="WIyWlLk6GJQsqaUBKTNV-1">
          <mxGeometry x="2900" y="389.06" width="40" height="30" as="geometry" />
        </mxCell>
        <mxCell id="yTjbBZnUIRRuOPXFyYUr-137" value="김형석" style="rounded=0;whiteSpace=wrap;html=1;" vertex="1" parent="WIyWlLk6GJQsqaUBKTNV-1">
          <mxGeometry x="2990" y="359.69" width="40" height="30" as="geometry" />
        </mxCell>
        <mxCell id="yTjbBZnUIRRuOPXFyYUr-138" value="5" style="rounded=0;whiteSpace=wrap;html=1;" vertex="1" parent="WIyWlLk6GJQsqaUBKTNV-1">
          <mxGeometry x="2900" y="419.06" width="40" height="30" as="geometry" />
        </mxCell>
        <mxCell id="yTjbBZnUIRRuOPXFyYUr-139" value="이재훈" style="rounded=0;whiteSpace=wrap;html=1;" vertex="1" parent="WIyWlLk6GJQsqaUBKTNV-1">
          <mxGeometry x="2990" y="389.69" width="40" height="30" as="geometry" />
        </mxCell>
        <mxCell id="yTjbBZnUIRRuOPXFyYUr-140" value="" style="rounded=0;whiteSpace=wrap;html=1;" vertex="1" parent="WIyWlLk6GJQsqaUBKTNV-1">
          <mxGeometry x="2940" y="269.69" width="40" height="30" as="geometry" />
        </mxCell>
        <mxCell id="yTjbBZnUIRRuOPXFyYUr-141" value="" style="rounded=0;whiteSpace=wrap;html=1;" vertex="1" parent="WIyWlLk6GJQsqaUBKTNV-1">
          <mxGeometry x="2940" y="299.06" width="40" height="30" as="geometry" />
        </mxCell>
        <mxCell id="yTjbBZnUIRRuOPXFyYUr-142" value="" style="rounded=0;whiteSpace=wrap;html=1;" vertex="1" parent="WIyWlLk6GJQsqaUBKTNV-1">
          <mxGeometry x="2940" y="329.06" width="40" height="30" as="geometry" />
        </mxCell>
        <mxCell id="yTjbBZnUIRRuOPXFyYUr-143" value="" style="rounded=0;whiteSpace=wrap;html=1;" vertex="1" parent="WIyWlLk6GJQsqaUBKTNV-1">
          <mxGeometry x="2940" y="359.06" width="40" height="30" as="geometry" />
        </mxCell>
        <mxCell id="yTjbBZnUIRRuOPXFyYUr-144" value="" style="rounded=0;whiteSpace=wrap;html=1;" vertex="1" parent="WIyWlLk6GJQsqaUBKTNV-1">
          <mxGeometry x="2940" y="389.69" width="40" height="30" as="geometry" />
        </mxCell>
        <mxCell id="yTjbBZnUIRRuOPXFyYUr-145" value="" style="rounded=0;whiteSpace=wrap;html=1;" vertex="1" parent="WIyWlLk6GJQsqaUBKTNV-1">
          <mxGeometry x="2940" y="419.06" width="40" height="30" as="geometry" />
        </mxCell>
        <mxCell id="yTjbBZnUIRRuOPXFyYUr-151" style="edgeStyle=orthogonalEdgeStyle;rounded=0;orthogonalLoop=1;jettySize=auto;html=1;entryX=0;entryY=0.5;entryDx=0;entryDy=0;" edge="1" parent="WIyWlLk6GJQsqaUBKTNV-1" source="yTjbBZnUIRRuOPXFyYUr-146" target="yTjbBZnUIRRuOPXFyYUr-150">
          <mxGeometry relative="1" as="geometry" />
        </mxCell>
        <mxCell id="yTjbBZnUIRRuOPXFyYUr-146" value="Hash" style="rounded=0;whiteSpace=wrap;html=1;" vertex="1" parent="WIyWlLk6GJQsqaUBKTNV-1">
          <mxGeometry x="2680" y="289.37" width="100" height="55.32" as="geometry" />
        </mxCell>
        <mxCell id="yTjbBZnUIRRuOPXFyYUr-149" style="edgeStyle=orthogonalEdgeStyle;rounded=0;orthogonalLoop=1;jettySize=auto;html=1;entryX=0;entryY=0.5;entryDx=0;entryDy=0;" edge="1" parent="WIyWlLk6GJQsqaUBKTNV-1" source="yTjbBZnUIRRuOPXFyYUr-147" target="yTjbBZnUIRRuOPXFyYUr-146">
          <mxGeometry relative="1" as="geometry" />
        </mxCell>
        <mxCell id="yTjbBZnUIRRuOPXFyYUr-147" value="김기찬" style="rounded=0;whiteSpace=wrap;html=1;" vertex="1" parent="WIyWlLk6GJQsqaUBKTNV-1">
          <mxGeometry x="2610" y="302.03000000000003" width="40" height="30" as="geometry" />
        </mxCell>
        <mxCell id="yTjbBZnUIRRuOPXFyYUr-150" value="2" style="rounded=0;whiteSpace=wrap;html=1;" vertex="1" parent="WIyWlLk6GJQsqaUBKTNV-1">
          <mxGeometry x="2810" y="307.03" width="40" height="20" as="geometry" />
        </mxCell>
        <mxCell id="yTjbBZnUIRRuOPXFyYUr-152" value="김기찬" style="rounded=0;whiteSpace=wrap;html=1;" vertex="1" parent="WIyWlLk6GJQsqaUBKTNV-1">
          <mxGeometry x="2940" y="329.69000000000005" width="40" height="30" as="geometry" />
        </mxCell>
        <mxCell id="yTjbBZnUIRRuOPXFyYUr-153" value="김형석" style="rounded=0;whiteSpace=wrap;html=1;" vertex="1" parent="WIyWlLk6GJQsqaUBKTNV-1">
          <mxGeometry x="2610" y="302.03000000000003" width="40" height="30" as="geometry" />
        </mxCell>
        <mxCell id="yTjbBZnUIRRuOPXFyYUr-154" value="김형석" style="rounded=0;whiteSpace=wrap;html=1;" vertex="1" parent="WIyWlLk6GJQsqaUBKTNV-1">
          <mxGeometry x="2940" y="269.06" width="40" height="30" as="geometry" />
        </mxCell>
        <mxCell id="yTjbBZnUIRRuOPXFyYUr-156" value="이재훈" style="rounded=0;whiteSpace=wrap;html=1;" vertex="1" parent="WIyWlLk6GJQsqaUBKTNV-1">
          <mxGeometry x="2610" y="300" width="40" height="30" as="geometry" />
        </mxCell>
        <mxCell id="yTjbBZnUIRRuOPXFyYUr-157" value="해시충돌 :&amp;nbsp;&lt;br&gt;다른 값을 넣었는데 동일한 Hash 값이 나오는 상황&lt;br&gt;" style="text;html=1;strokeColor=none;fillColor=none;align=center;verticalAlign=middle;whiteSpace=wrap;rounded=0;" vertex="1" parent="WIyWlLk6GJQsqaUBKTNV-1">
          <mxGeometry x="2630" y="364" width="200" height="75.63" as="geometry" />
        </mxCell>
        <mxCell id="yTjbBZnUIRRuOPXFyYUr-158" value="HashSet은 해시충돌시 데이터 삽입 안됨." style="text;html=1;strokeColor=none;fillColor=none;align=center;verticalAlign=middle;whiteSpace=wrap;rounded=0;" vertex="1" parent="WIyWlLk6GJQsqaUBKTNV-1">
          <mxGeometry x="2630" y="439" width="230" height="50.37" as="geometry" />
        </mxCell>
        <mxCell id="yTjbBZnUIRRuOPXFyYUr-159" value="index" style="rounded=0;whiteSpace=wrap;html=1;" vertex="1" parent="WIyWlLk6GJQsqaUBKTNV-1">
          <mxGeometry x="3130" y="240" width="40" height="30" as="geometry" />
        </mxCell>
        <mxCell id="yTjbBZnUIRRuOPXFyYUr-160" value="bucket list&lt;br&gt;(Key-Value pair)" style="rounded=0;whiteSpace=wrap;html=1;" vertex="1" parent="WIyWlLk6GJQsqaUBKTNV-1">
          <mxGeometry x="3170" y="240" width="100" height="30" as="geometry" />
        </mxCell>
        <mxCell id="yTjbBZnUIRRuOPXFyYUr-161" value="0" style="rounded=0;whiteSpace=wrap;html=1;" vertex="1" parent="WIyWlLk6GJQsqaUBKTNV-1">
          <mxGeometry x="3130" y="270" width="40" height="30" as="geometry" />
        </mxCell>
        <mxCell id="yTjbBZnUIRRuOPXFyYUr-162" value="1" style="rounded=0;whiteSpace=wrap;html=1;" vertex="1" parent="WIyWlLk6GJQsqaUBKTNV-1">
          <mxGeometry x="3130" y="300" width="40" height="30" as="geometry" />
        </mxCell>
        <mxCell id="yTjbBZnUIRRuOPXFyYUr-163" value="2" style="rounded=0;whiteSpace=wrap;html=1;" vertex="1" parent="WIyWlLk6GJQsqaUBKTNV-1">
          <mxGeometry x="3130" y="329.37" width="40" height="30" as="geometry" />
        </mxCell>
        <mxCell id="yTjbBZnUIRRuOPXFyYUr-164" value="3" style="rounded=0;whiteSpace=wrap;html=1;" vertex="1" parent="WIyWlLk6GJQsqaUBKTNV-1">
          <mxGeometry x="3130" y="359.37" width="40" height="30" as="geometry" />
        </mxCell>
        <mxCell id="yTjbBZnUIRRuOPXFyYUr-165" value="4" style="rounded=0;whiteSpace=wrap;html=1;" vertex="1" parent="WIyWlLk6GJQsqaUBKTNV-1">
          <mxGeometry x="3130" y="389.37" width="40" height="30" as="geometry" />
        </mxCell>
        <mxCell id="yTjbBZnUIRRuOPXFyYUr-166" value="5" style="rounded=0;whiteSpace=wrap;html=1;" vertex="1" parent="WIyWlLk6GJQsqaUBKTNV-1">
          <mxGeometry x="3130" y="419.37" width="40" height="30" as="geometry" />
        </mxCell>
        <mxCell id="yTjbBZnUIRRuOPXFyYUr-167" value="" style="rounded=0;whiteSpace=wrap;html=1;" vertex="1" parent="WIyWlLk6GJQsqaUBKTNV-1">
          <mxGeometry x="3170" y="270" width="40" height="30" as="geometry" />
        </mxCell>
        <mxCell id="yTjbBZnUIRRuOPXFyYUr-174" value="김형석&lt;br&gt;90" style="rounded=0;whiteSpace=wrap;html=1;" vertex="1" parent="WIyWlLk6GJQsqaUBKTNV-1">
          <mxGeometry x="3170" y="269.37" width="100" height="30" as="geometry" />
        </mxCell>
        <mxCell id="yTjbBZnUIRRuOPXFyYUr-175" value="김수민&lt;br&gt;70" style="rounded=0;whiteSpace=wrap;html=1;" vertex="1" parent="WIyWlLk6GJQsqaUBKTNV-1">
          <mxGeometry x="3170" y="299.37" width="100" height="30" as="geometry" />
        </mxCell>
        <mxCell id="yTjbBZnUIRRuOPXFyYUr-176" value="Key를 Hash 함수에 넣고 HashID 를 구함. HashID 위치에 Key,Value 쌍을 저장" style="text;html=1;strokeColor=none;fillColor=none;align=center;verticalAlign=middle;whiteSpace=wrap;rounded=0;" vertex="1" parent="WIyWlLk6GJQsqaUBKTNV-1">
          <mxGeometry x="3240" y="170" width="160" height="50" as="geometry" />
        </mxCell>
        <mxCell id="yTjbBZnUIRRuOPXFyYUr-177" value="김동영&lt;br&gt;80" style="rounded=0;whiteSpace=wrap;html=1;" vertex="1" parent="WIyWlLk6GJQsqaUBKTNV-1">
          <mxGeometry x="3270" y="299.37" width="100" height="30.63" as="geometry" />
        </mxCell>
        <mxCell id="yTjbBZnUIRRuOPXFyYUr-178" value="1. 체이닝&lt;br&gt;bucket list 사용. (Jagged array)&lt;br&gt;해시충돌이 일어난 KeyValuePair 를 bucket list 에 쭉 추가하는 형태.&amp;nbsp;&lt;br&gt;C# 은 체이닝기법쓰고있음&lt;br&gt;&lt;br&gt;2. 오픈어드레싱&lt;br&gt;bucket 사용.&lt;br&gt;해시충돌이 일어난 KeyValuePair를 저장할 인덱스를 특정 규칙에 따라서 새로 찾음." style="text;html=1;strokeColor=none;fillColor=none;align=center;verticalAlign=middle;whiteSpace=wrap;rounded=0;" vertex="1" parent="WIyWlLk6GJQsqaUBKTNV-1">
          <mxGeometry x="3420" y="244.37" width="230" height="205.63" as="geometry" />
        </mxCell>
        <mxCell id="yTjbBZnUIRRuOPXFyYUr-179" value="index" style="rounded=0;whiteSpace=wrap;html=1;" vertex="1" parent="WIyWlLk6GJQsqaUBKTNV-1">
          <mxGeometry x="3130" y="480.63" width="40" height="30" as="geometry" />
        </mxCell>
        <mxCell id="yTjbBZnUIRRuOPXFyYUr-180" value="bucket&lt;br&gt;(Key-Value pair)" style="rounded=0;whiteSpace=wrap;html=1;" vertex="1" parent="WIyWlLk6GJQsqaUBKTNV-1">
          <mxGeometry x="3170" y="480.63" width="100" height="30" as="geometry" />
        </mxCell>
        <mxCell id="yTjbBZnUIRRuOPXFyYUr-181" value="0" style="rounded=0;whiteSpace=wrap;html=1;" vertex="1" parent="WIyWlLk6GJQsqaUBKTNV-1">
          <mxGeometry x="3130" y="510.63" width="40" height="30" as="geometry" />
        </mxCell>
        <mxCell id="yTjbBZnUIRRuOPXFyYUr-182" value="1" style="rounded=0;whiteSpace=wrap;html=1;" vertex="1" parent="WIyWlLk6GJQsqaUBKTNV-1">
          <mxGeometry x="3130" y="540.63" width="40" height="30" as="geometry" />
        </mxCell>
        <mxCell id="yTjbBZnUIRRuOPXFyYUr-183" value="2" style="rounded=0;whiteSpace=wrap;html=1;" vertex="1" parent="WIyWlLk6GJQsqaUBKTNV-1">
          <mxGeometry x="3130" y="570" width="40" height="30" as="geometry" />
        </mxCell>
        <mxCell id="yTjbBZnUIRRuOPXFyYUr-184" value="3" style="rounded=0;whiteSpace=wrap;html=1;" vertex="1" parent="WIyWlLk6GJQsqaUBKTNV-1">
          <mxGeometry x="3130" y="600" width="40" height="30" as="geometry" />
        </mxCell>
        <mxCell id="yTjbBZnUIRRuOPXFyYUr-185" value="4" style="rounded=0;whiteSpace=wrap;html=1;" vertex="1" parent="WIyWlLk6GJQsqaUBKTNV-1">
          <mxGeometry x="3130" y="630" width="40" height="30" as="geometry" />
        </mxCell>
        <mxCell id="yTjbBZnUIRRuOPXFyYUr-186" value="5" style="rounded=0;whiteSpace=wrap;html=1;" vertex="1" parent="WIyWlLk6GJQsqaUBKTNV-1">
          <mxGeometry x="3130" y="660" width="40" height="30" as="geometry" />
        </mxCell>
        <mxCell id="yTjbBZnUIRRuOPXFyYUr-187" value="" style="rounded=0;whiteSpace=wrap;html=1;" vertex="1" parent="WIyWlLk6GJQsqaUBKTNV-1">
          <mxGeometry x="3170" y="510.63" width="40" height="30" as="geometry" />
        </mxCell>
        <mxCell id="yTjbBZnUIRRuOPXFyYUr-188" value="김형석&lt;br&gt;90" style="rounded=0;whiteSpace=wrap;html=1;" vertex="1" parent="WIyWlLk6GJQsqaUBKTNV-1">
          <mxGeometry x="3170" y="510" width="100" height="30" as="geometry" />
        </mxCell>
        <mxCell id="yTjbBZnUIRRuOPXFyYUr-189" value="김수민&lt;br&gt;70" style="rounded=0;whiteSpace=wrap;html=1;" vertex="1" parent="WIyWlLk6GJQsqaUBKTNV-1">
          <mxGeometry x="3170" y="540" width="100" height="30" as="geometry" />
        </mxCell>
        <mxCell id="yTjbBZnUIRRuOPXFyYUr-190" value="김동영&lt;br&gt;80" style="rounded=0;whiteSpace=wrap;html=1;" vertex="1" parent="WIyWlLk6GJQsqaUBKTNV-1">
          <mxGeometry x="3170" y="600" width="100" height="30.63" as="geometry" />
        </mxCell>
        <mxCell id="yTjbBZnUIRRuOPXFyYUr-192" value="탐색, 삽입, 삭제&lt;br&gt;&amp;nbsp;: Value 값을 Hash 함수에 대입해서 나온 Index 로 접근해서 데이터찾음.&lt;br&gt;Hash 함수가 이상적이라는 가정하에 O(1)" style="text;html=1;strokeColor=none;fillColor=none;align=center;verticalAlign=middle;whiteSpace=wrap;rounded=0;" vertex="1" parent="WIyWlLk6GJQsqaUBKTNV-1">
          <mxGeometry x="2860" y="459.37" width="240" height="60.63" as="geometry" />
        </mxCell>
        <mxCell id="yTjbBZnUIRRuOPXFyYUr-194" value="탐색, 삽입, 삭제&lt;br&gt;최악의경우 모든 아이템이 해시충돌이 일어나고, 탐색/삽입/삭제 하려는 대상이 해당 충돌되었던 해시값이 나온경우 O(n)&amp;nbsp;" style="text;html=1;strokeColor=none;fillColor=none;align=center;verticalAlign=middle;whiteSpace=wrap;rounded=0;" vertex="1" parent="WIyWlLk6GJQsqaUBKTNV-1">
          <mxGeometry x="3340" y="479.37" width="240" height="60.63" as="geometry" />
        </mxCell>
        <mxCell id="yTjbBZnUIRRuOPXFyYUr-201" style="edgeStyle=orthogonalEdgeStyle;rounded=0;orthogonalLoop=1;jettySize=auto;html=1;" edge="1" parent="WIyWlLk6GJQsqaUBKTNV-1" source="yTjbBZnUIRRuOPXFyYUr-195" target="yTjbBZnUIRRuOPXFyYUr-200">
          <mxGeometry relative="1" as="geometry">
            <Array as="points">
              <mxPoint x="3818" y="320" />
              <mxPoint x="3744" y="320" />
            </Array>
          </mxGeometry>
        </mxCell>
        <mxCell id="yTjbBZnUIRRuOPXFyYUr-204" style="edgeStyle=orthogonalEdgeStyle;rounded=0;orthogonalLoop=1;jettySize=auto;html=1;entryX=0.5;entryY=0;entryDx=0;entryDy=0;" edge="1" parent="WIyWlLk6GJQsqaUBKTNV-1" source="yTjbBZnUIRRuOPXFyYUr-195" target="yTjbBZnUIRRuOPXFyYUr-203">
          <mxGeometry relative="1" as="geometry" />
        </mxCell>
        <mxCell id="yTjbBZnUIRRuOPXFyYUr-206" style="edgeStyle=orthogonalEdgeStyle;rounded=0;orthogonalLoop=1;jettySize=auto;html=1;entryX=0.5;entryY=0;entryDx=0;entryDy=0;" edge="1" parent="WIyWlLk6GJQsqaUBKTNV-1" source="yTjbBZnUIRRuOPXFyYUr-195" target="yTjbBZnUIRRuOPXFyYUr-205">
          <mxGeometry relative="1" as="geometry" />
        </mxCell>
        <mxCell id="yTjbBZnUIRRuOPXFyYUr-195" value="" style="ellipse;whiteSpace=wrap;html=1;aspect=fixed;" vertex="1" parent="WIyWlLk6GJQsqaUBKTNV-1">
          <mxGeometry x="3780" y="234.37" width="75.63" height="75.63" as="geometry" />
        </mxCell>
        <mxCell id="yTjbBZnUIRRuOPXFyYUr-196" value="Root&lt;br&gt;: 최상단노드" style="text;html=1;strokeColor=none;fillColor=none;align=center;verticalAlign=middle;whiteSpace=wrap;rounded=0;" vertex="1" parent="WIyWlLk6GJQsqaUBKTNV-1">
          <mxGeometry x="3690" y="244.37" width="90" height="30" as="geometry" />
        </mxCell>
        <mxCell id="yTjbBZnUIRRuOPXFyYUr-197" value="Node" style="rounded=0;whiteSpace=wrap;html=1;" vertex="1" parent="WIyWlLk6GJQsqaUBKTNV-1">
          <mxGeometry x="3787.82" y="225" width="60" height="20" as="geometry" />
        </mxCell>
        <mxCell id="yTjbBZnUIRRuOPXFyYUr-198" value="T Value" style="rounded=0;whiteSpace=wrap;html=1;" vertex="1" parent="WIyWlLk6GJQsqaUBKTNV-1">
          <mxGeometry x="3787.82" y="250.32" width="60" height="20" as="geometry" />
        </mxCell>
        <mxCell id="yTjbBZnUIRRuOPXFyYUr-199" value="Node[] children" style="rounded=0;whiteSpace=wrap;html=1;" vertex="1" parent="WIyWlLk6GJQsqaUBKTNV-1">
          <mxGeometry x="3766.73" y="275.32" width="102.18" height="20" as="geometry" />
        </mxCell>
        <mxCell id="yTjbBZnUIRRuOPXFyYUr-200" value="" style="ellipse;whiteSpace=wrap;html=1;aspect=fixed;" vertex="1" parent="WIyWlLk6GJQsqaUBKTNV-1">
          <mxGeometry x="3722" y="360" width="44.37" height="44.37" as="geometry" />
        </mxCell>
        <mxCell id="yTjbBZnUIRRuOPXFyYUr-209" style="edgeStyle=orthogonalEdgeStyle;rounded=0;orthogonalLoop=1;jettySize=auto;html=1;entryX=0.5;entryY=0;entryDx=0;entryDy=0;" edge="1" parent="WIyWlLk6GJQsqaUBKTNV-1" source="yTjbBZnUIRRuOPXFyYUr-203" target="yTjbBZnUIRRuOPXFyYUr-207">
          <mxGeometry relative="1" as="geometry" />
        </mxCell>
        <mxCell id="yTjbBZnUIRRuOPXFyYUr-210" style="edgeStyle=orthogonalEdgeStyle;rounded=0;orthogonalLoop=1;jettySize=auto;html=1;entryX=0.5;entryY=0;entryDx=0;entryDy=0;" edge="1" parent="WIyWlLk6GJQsqaUBKTNV-1" source="yTjbBZnUIRRuOPXFyYUr-203" target="yTjbBZnUIRRuOPXFyYUr-208">
          <mxGeometry relative="1" as="geometry" />
        </mxCell>
        <mxCell id="yTjbBZnUIRRuOPXFyYUr-212" style="edgeStyle=orthogonalEdgeStyle;rounded=0;orthogonalLoop=1;jettySize=auto;html=1;" edge="1" parent="WIyWlLk6GJQsqaUBKTNV-1" source="yTjbBZnUIRRuOPXFyYUr-203" target="yTjbBZnUIRRuOPXFyYUr-211">
          <mxGeometry relative="1" as="geometry">
            <Array as="points">
              <mxPoint x="3818" y="430" />
              <mxPoint x="3902" y="430" />
            </Array>
          </mxGeometry>
        </mxCell>
        <mxCell id="yTjbBZnUIRRuOPXFyYUr-203" value="" style="ellipse;whiteSpace=wrap;html=1;aspect=fixed;" vertex="1" parent="WIyWlLk6GJQsqaUBKTNV-1">
          <mxGeometry x="3795.63" y="359.06" width="44.37" height="44.37" as="geometry" />
        </mxCell>
        <mxCell id="yTjbBZnUIRRuOPXFyYUr-205" value="" style="ellipse;whiteSpace=wrap;html=1;aspect=fixed;" vertex="1" parent="WIyWlLk6GJQsqaUBKTNV-1">
          <mxGeometry x="3855.63" y="364" width="44.37" height="44.37" as="geometry" />
        </mxCell>
        <mxCell id="yTjbBZnUIRRuOPXFyYUr-207" value="" style="ellipse;whiteSpace=wrap;html=1;aspect=fixed;" vertex="1" parent="WIyWlLk6GJQsqaUBKTNV-1">
          <mxGeometry x="3765.63" y="436.26" width="44.37" height="44.37" as="geometry" />
        </mxCell>
        <mxCell id="yTjbBZnUIRRuOPXFyYUr-208" value="" style="ellipse;whiteSpace=wrap;html=1;aspect=fixed;" vertex="1" parent="WIyWlLk6GJQsqaUBKTNV-1">
          <mxGeometry x="3820" y="450" width="44.37" height="44.37" as="geometry" />
        </mxCell>
        <mxCell id="yTjbBZnUIRRuOPXFyYUr-211" value="" style="ellipse;whiteSpace=wrap;html=1;aspect=fixed;" vertex="1" parent="WIyWlLk6GJQsqaUBKTNV-1">
          <mxGeometry x="3880" y="449.06" width="44.37" height="44.37" as="geometry" />
        </mxCell>
        <mxCell id="yTjbBZnUIRRuOPXFyYUr-213" value="Leaf&lt;br&gt;: 말단노드" style="text;html=1;strokeColor=none;fillColor=none;align=center;verticalAlign=middle;whiteSpace=wrap;rounded=0;" vertex="1" parent="WIyWlLk6GJQsqaUBKTNV-1">
          <mxGeometry x="3675.63" y="436.26" width="90" height="30" as="geometry" />
        </mxCell>
        <mxCell id="yTjbBZnUIRRuOPXFyYUr-214" value="간선" style="text;html=1;strokeColor=none;fillColor=none;align=center;verticalAlign=middle;whiteSpace=wrap;rounded=0;" vertex="1" parent="WIyWlLk6GJQsqaUBKTNV-1">
          <mxGeometry x="3692" y="304.36999999999995" width="60" height="30" as="geometry" />
        </mxCell>
        <mxCell id="yTjbBZnUIRRuOPXFyYUr-215" value="완전이진트리&lt;br&gt;(Binary tree)" style="rounded=0;whiteSpace=wrap;html=1;" vertex="1" parent="WIyWlLk6GJQsqaUBKTNV-1">
          <mxGeometry x="3900" y="165" width="120" height="60" as="geometry" />
        </mxCell>
        <mxCell id="yTjbBZnUIRRuOPXFyYUr-220" style="edgeStyle=orthogonalEdgeStyle;rounded=0;orthogonalLoop=1;jettySize=auto;html=1;entryX=0.5;entryY=0;entryDx=0;entryDy=0;" edge="1" parent="WIyWlLk6GJQsqaUBKTNV-1" source="yTjbBZnUIRRuOPXFyYUr-216" target="yTjbBZnUIRRuOPXFyYUr-217">
          <mxGeometry relative="1" as="geometry" />
        </mxCell>
        <mxCell id="yTjbBZnUIRRuOPXFyYUr-221" style="edgeStyle=orthogonalEdgeStyle;rounded=0;orthogonalLoop=1;jettySize=auto;html=1;entryX=0.5;entryY=0;entryDx=0;entryDy=0;" edge="1" parent="WIyWlLk6GJQsqaUBKTNV-1" source="yTjbBZnUIRRuOPXFyYUr-216" target="yTjbBZnUIRRuOPXFyYUr-218">
          <mxGeometry relative="1" as="geometry" />
        </mxCell>
        <mxCell id="yTjbBZnUIRRuOPXFyYUr-216" value="7" style="ellipse;whiteSpace=wrap;html=1;aspect=fixed;" vertex="1" parent="WIyWlLk6GJQsqaUBKTNV-1">
          <mxGeometry x="4084.37" y="220" width="44.37" height="44.37" as="geometry" />
        </mxCell>
        <mxCell id="yTjbBZnUIRRuOPXFyYUr-223" style="edgeStyle=orthogonalEdgeStyle;rounded=0;orthogonalLoop=1;jettySize=auto;html=1;" edge="1" parent="WIyWlLk6GJQsqaUBKTNV-1" source="yTjbBZnUIRRuOPXFyYUr-217" target="yTjbBZnUIRRuOPXFyYUr-222">
          <mxGeometry relative="1" as="geometry" />
        </mxCell>
        <mxCell id="yTjbBZnUIRRuOPXFyYUr-217" value="4" style="ellipse;whiteSpace=wrap;html=1;aspect=fixed;" vertex="1" parent="WIyWlLk6GJQsqaUBKTNV-1">
          <mxGeometry x="4034.37" y="295.63" width="44.37" height="44.37" as="geometry" />
        </mxCell>
        <mxCell id="yTjbBZnUIRRuOPXFyYUr-227" style="edgeStyle=orthogonalEdgeStyle;rounded=0;orthogonalLoop=1;jettySize=auto;html=1;" edge="1" parent="WIyWlLk6GJQsqaUBKTNV-1" source="yTjbBZnUIRRuOPXFyYUr-218" target="yTjbBZnUIRRuOPXFyYUr-226">
          <mxGeometry relative="1" as="geometry" />
        </mxCell>
        <mxCell id="yTjbBZnUIRRuOPXFyYUr-229" style="edgeStyle=orthogonalEdgeStyle;rounded=0;orthogonalLoop=1;jettySize=auto;html=1;entryX=0.5;entryY=0;entryDx=0;entryDy=0;" edge="1" parent="WIyWlLk6GJQsqaUBKTNV-1" source="yTjbBZnUIRRuOPXFyYUr-218" target="yTjbBZnUIRRuOPXFyYUr-228">
          <mxGeometry relative="1" as="geometry">
            <Array as="points">
              <mxPoint x="4182" y="360" />
              <mxPoint x="4232" y="360" />
            </Array>
          </mxGeometry>
        </mxCell>
        <mxCell id="yTjbBZnUIRRuOPXFyYUr-218" value="10" style="ellipse;whiteSpace=wrap;html=1;aspect=fixed;" vertex="1" parent="WIyWlLk6GJQsqaUBKTNV-1">
          <mxGeometry x="4160" y="295.32" width="44.37" height="44.37" as="geometry" />
        </mxCell>
        <mxCell id="yTjbBZnUIRRuOPXFyYUr-222" value="1" style="ellipse;whiteSpace=wrap;html=1;aspect=fixed;" vertex="1" parent="WIyWlLk6GJQsqaUBKTNV-1">
          <mxGeometry x="4000" y="374.69" width="44.37" height="44.37" as="geometry" />
        </mxCell>
        <mxCell id="yTjbBZnUIRRuOPXFyYUr-224" value="5" style="ellipse;whiteSpace=wrap;html=1;aspect=fixed;" vertex="1" parent="WIyWlLk6GJQsqaUBKTNV-1">
          <mxGeometry x="4078.74" y="380.89" width="44.37" height="44.37" as="geometry" />
        </mxCell>
        <mxCell id="yTjbBZnUIRRuOPXFyYUr-225" style="edgeStyle=orthogonalEdgeStyle;rounded=0;orthogonalLoop=1;jettySize=auto;html=1;entryX=0.5;entryY=0;entryDx=0;entryDy=0;" edge="1" parent="WIyWlLk6GJQsqaUBKTNV-1" source="yTjbBZnUIRRuOPXFyYUr-217" target="yTjbBZnUIRRuOPXFyYUr-224">
          <mxGeometry relative="1" as="geometry" />
        </mxCell>
        <mxCell id="yTjbBZnUIRRuOPXFyYUr-226" value="8" style="ellipse;whiteSpace=wrap;html=1;aspect=fixed;" vertex="1" parent="WIyWlLk6GJQsqaUBKTNV-1">
          <mxGeometry x="4135" y="379.63" width="44.37" height="44.37" as="geometry" />
        </mxCell>
        <mxCell id="yTjbBZnUIRRuOPXFyYUr-228" value="13" style="ellipse;whiteSpace=wrap;html=1;aspect=fixed;" vertex="1" parent="WIyWlLk6GJQsqaUBKTNV-1">
          <mxGeometry x="4210" y="380" width="44.37" height="44.37" as="geometry" />
        </mxCell>
        <mxCell id="yTjbBZnUIRRuOPXFyYUr-230" value="3 / 7" style="text;html=1;strokeColor=none;fillColor=none;align=center;verticalAlign=middle;whiteSpace=wrap;rounded=0;" vertex="1" parent="WIyWlLk6GJQsqaUBKTNV-1">
          <mxGeometry x="4260" y="297.03" width="60" height="30" as="geometry" />
        </mxCell>
        <mxCell id="yTjbBZnUIRRuOPXFyYUr-231" value="1 / 1" style="text;html=1;strokeColor=none;fillColor=none;align=center;verticalAlign=middle;whiteSpace=wrap;rounded=0;" vertex="1" parent="WIyWlLk6GJQsqaUBKTNV-1">
          <mxGeometry x="4254.37" y="219.99999999999997" width="60" height="30" as="geometry" />
        </mxCell>
        <mxCell id="yTjbBZnUIRRuOPXFyYUr-232" value="2 / 3" style="text;html=1;strokeColor=none;fillColor=none;align=center;verticalAlign=middle;whiteSpace=wrap;rounded=0;" vertex="1" parent="WIyWlLk6GJQsqaUBKTNV-1">
          <mxGeometry x="4254.37" y="264.36999999999995" width="60" height="30" as="geometry" />
        </mxCell>
        <mxCell id="yTjbBZnUIRRuOPXFyYUr-233" value="H = 1" style="text;html=1;strokeColor=none;fillColor=none;align=center;verticalAlign=middle;whiteSpace=wrap;rounded=0;" vertex="1" parent="WIyWlLk6GJQsqaUBKTNV-1">
          <mxGeometry x="4128.74" y="204.37" width="60" height="30" as="geometry" />
        </mxCell>
        <mxCell id="yTjbBZnUIRRuOPXFyYUr-234" value="H = 2" style="text;html=1;strokeColor=none;fillColor=none;align=center;verticalAlign=middle;whiteSpace=wrap;rounded=0;" vertex="1" parent="WIyWlLk6GJQsqaUBKTNV-1">
          <mxGeometry x="4210" y="302.03" width="60" height="30" as="geometry" />
        </mxCell>
        <mxCell id="yTjbBZnUIRRuOPXFyYUr-235" value="H = 3" style="text;html=1;strokeColor=none;fillColor=none;align=center;verticalAlign=middle;whiteSpace=wrap;rounded=0;" vertex="1" parent="WIyWlLk6GJQsqaUBKTNV-1">
          <mxGeometry x="4270" y="384.37" width="60" height="30" as="geometry" />
        </mxCell>
        <mxCell id="yTjbBZnUIRRuOPXFyYUr-236" value="O(H)&lt;br&gt;n = 2^h-1&lt;br&gt;h = log(n+1)&lt;br&gt;-&amp;gt; O(log n)" style="text;html=1;strokeColor=none;fillColor=none;align=center;verticalAlign=middle;whiteSpace=wrap;rounded=0;" vertex="1" parent="WIyWlLk6GJQsqaUBKTNV-1">
          <mxGeometry x="4170" y="443.44" width="120" height="56.56" as="geometry" />
        </mxCell>
        <mxCell id="yTjbBZnUIRRuOPXFyYUr-237" value="7" style="ellipse;whiteSpace=wrap;html=1;aspect=fixed;" vertex="1" parent="WIyWlLk6GJQsqaUBKTNV-1">
          <mxGeometry x="4549" y="304.37" width="49.68" height="49.68" as="geometry" />
        </mxCell>
        <mxCell id="yTjbBZnUIRRuOPXFyYUr-238" value="최우선순위의 값을 탐색하는 경우가 많을 때 사용" style="text;html=1;strokeColor=none;fillColor=none;align=center;verticalAlign=middle;whiteSpace=wrap;rounded=0;" vertex="1" parent="WIyWlLk6GJQsqaUBKTNV-1">
          <mxGeometry x="4479.68" y="165" width="160.32" height="65" as="geometry" />
        </mxCell>
        <mxCell id="yTjbBZnUIRRuOPXFyYUr-240" value="Max-Heap&lt;br&gt;Min-Heap" style="text;html=1;strokeColor=none;fillColor=none;align=center;verticalAlign=middle;whiteSpace=wrap;rounded=0;" vertex="1" parent="WIyWlLk6GJQsqaUBKTNV-1">
          <mxGeometry x="4350" y="239.06" width="110" height="40.94" as="geometry" />
        </mxCell>
        <mxCell id="yTjbBZnUIRRuOPXFyYUr-241" value="4" style="ellipse;whiteSpace=wrap;html=1;aspect=fixed;" vertex="1" parent="WIyWlLk6GJQsqaUBKTNV-1">
          <mxGeometry x="4420.32" y="361.34999999999997" width="49.68" height="49.68" as="geometry" />
        </mxCell>
        <mxCell id="yTjbBZnUIRRuOPXFyYUr-243" value="10" style="ellipse;whiteSpace=wrap;html=1;aspect=fixed;" vertex="1" parent="WIyWlLk6GJQsqaUBKTNV-1">
          <mxGeometry x="4499.32" y="234.36999999999992" width="49.68" height="49.68" as="geometry" />
        </mxCell>
        <mxCell id="yTjbBZnUIRRuOPXFyYUr-244" value="8" style="ellipse;whiteSpace=wrap;html=1;aspect=fixed;" vertex="1" parent="WIyWlLk6GJQsqaUBKTNV-1">
          <mxGeometry x="4468.47" y="292.6700000000001" width="49.68" height="49.68" as="geometry" />
        </mxCell>
        <mxCell id="yTjbBZnUIRRuOPXFyYUr-245" value="13" style="ellipse;whiteSpace=wrap;html=1;aspect=fixed;" vertex="1" parent="WIyWlLk6GJQsqaUBKTNV-1">
          <mxGeometry x="4869.999999999999" y="210" width="49.68" height="49.68" as="geometry" />
        </mxCell>
        <mxCell id="yTjbBZnUIRRuOPXFyYUr-247" value="삽입시 가장 마지막 자리에 노드 배치후 SIFT-Up 으로 스왑하면서 정렬" style="text;html=1;strokeColor=none;fillColor=none;align=center;verticalAlign=middle;whiteSpace=wrap;rounded=0;" vertex="1" parent="WIyWlLk6GJQsqaUBKTNV-1">
          <mxGeometry x="4660" y="430.63" width="230" height="55.63" as="geometry" />
        </mxCell>
        <mxCell id="yTjbBZnUIRRuOPXFyYUr-248" value="탐색 : 최상단 노드(Root) 만 보통 검색하므로 O(1). 만약 전체 노드에서 특정 매치조건탐색해야하면 O(n)&lt;br&gt;삽입 : O(Log n)&lt;br&gt;삭제 : O(Log n)" style="text;html=1;strokeColor=none;fillColor=none;align=center;verticalAlign=middle;whiteSpace=wrap;rounded=0;" vertex="1" parent="WIyWlLk6GJQsqaUBKTNV-1">
          <mxGeometry x="4640" y="321.87" width="290" height="88.13" as="geometry" />
        </mxCell>
        <mxCell id="yTjbBZnUIRRuOPXFyYUr-250" value="이해를 돕기위해서 노드로 표현했지만, 실제로는 그냥 배열로 구현됨." style="text;html=1;strokeColor=none;fillColor=none;align=center;verticalAlign=middle;whiteSpace=wrap;rounded=0;" vertex="1" parent="WIyWlLk6GJQsqaUBKTNV-1">
          <mxGeometry x="4670" y="170" width="160" height="45" as="geometry" />
        </mxCell>
        <mxCell id="yTjbBZnUIRRuOPXFyYUr-251" value="13" style="whiteSpace=wrap;html=1;aspect=fixed;" vertex="1" parent="WIyWlLk6GJQsqaUBKTNV-1">
          <mxGeometry x="4518.150000000001" y="426.74" width="24.37" height="24.37" as="geometry" />
        </mxCell>
        <mxCell id="yTjbBZnUIRRuOPXFyYUr-252" value="10" style="whiteSpace=wrap;html=1;aspect=fixed;" vertex="1" parent="WIyWlLk6GJQsqaUBKTNV-1">
          <mxGeometry x="4542.52" y="427.63" width="24.37" height="24.37" as="geometry" />
        </mxCell>
        <mxCell id="yTjbBZnUIRRuOPXFyYUr-253" value="7" style="whiteSpace=wrap;html=1;aspect=fixed;" vertex="1" parent="WIyWlLk6GJQsqaUBKTNV-1">
          <mxGeometry x="4566.89" y="427.63" width="24.37" height="24.37" as="geometry" />
        </mxCell>
        <mxCell id="yTjbBZnUIRRuOPXFyYUr-254" value="4" style="whiteSpace=wrap;html=1;aspect=fixed;" vertex="1" parent="WIyWlLk6GJQsqaUBKTNV-1">
          <mxGeometry x="4591.26" y="427.63" width="24.37" height="24.37" as="geometry" />
        </mxCell>
        <mxCell id="yTjbBZnUIRRuOPXFyYUr-255" value="8" style="whiteSpace=wrap;html=1;aspect=fixed;" vertex="1" parent="WIyWlLk6GJQsqaUBKTNV-1">
          <mxGeometry x="4615.63" y="426.74" width="24.37" height="24.37" as="geometry" />
        </mxCell>
        <mxCell id="yTjbBZnUIRRuOPXFyYUr-257" value="삭제시 루트 제거 후 가장 마지막 아이템을 루트위치에 배치한 후 SIFT-Down 으로 스왑하면서 정렬" style="text;html=1;strokeColor=none;fillColor=none;align=center;verticalAlign=middle;whiteSpace=wrap;rounded=0;" vertex="1" parent="WIyWlLk6GJQsqaUBKTNV-1">
          <mxGeometry x="4660" y="480.63" width="230" height="55.63" as="geometry" />
        </mxCell>
        <mxCell id="yTjbBZnUIRRuOPXFyYUr-258" value="DynamicArray" style="swimlane;fontStyle=1;align=center;verticalAlign=top;childLayout=stackLayout;horizontal=1;startSize=26;horizontalStack=0;resizeParent=1;resizeParentMax=0;resizeLast=0;collapsible=1;marginBottom=0;whiteSpace=wrap;html=1;" vertex="1" parent="WIyWlLk6GJQsqaUBKTNV-1">
          <mxGeometry x="1450" y="489.37" width="240" height="242" as="geometry" />
        </mxCell>
        <mxCell id="yTjbBZnUIRRuOPXFyYUr-273" value="{+get} count : int" style="text;strokeColor=none;fillColor=none;align=left;verticalAlign=top;spacingLeft=4;spacingRight=4;overflow=hidden;rotatable=0;points=[[0,0.5],[1,0.5]];portConstraint=eastwest;whiteSpace=wrap;html=1;" vertex="1" parent="yTjbBZnUIRRuOPXFyYUr-258">
          <mxGeometry y="26" width="240" height="26" as="geometry" />
        </mxCell>
        <mxCell id="yTjbBZnUIRRuOPXFyYUr-274" value="{+get} capacity : int" style="text;strokeColor=none;fillColor=none;align=left;verticalAlign=top;spacingLeft=4;spacingRight=4;overflow=hidden;rotatable=0;points=[[0,0.5],[1,0.5]];portConstraint=eastwest;whiteSpace=wrap;html=1;" vertex="1" parent="yTjbBZnUIRRuOPXFyYUr-258">
          <mxGeometry y="52" width="240" height="26" as="geometry" />
        </mxCell>
        <mxCell id="yTjbBZnUIRRuOPXFyYUr-259" value="- items : int[]" style="text;strokeColor=none;fillColor=none;align=left;verticalAlign=top;spacingLeft=4;spacingRight=4;overflow=hidden;rotatable=0;points=[[0,0.5],[1,0.5]];portConstraint=eastwest;whiteSpace=wrap;html=1;" vertex="1" parent="yTjbBZnUIRRuOPXFyYUr-258">
          <mxGeometry y="78" width="240" height="26" as="geometry" />
        </mxCell>
        <mxCell id="yTjbBZnUIRRuOPXFyYUr-262" value="- count : int" style="text;strokeColor=none;fillColor=none;align=left;verticalAlign=top;spacingLeft=4;spacingRight=4;overflow=hidden;rotatable=0;points=[[0,0.5],[1,0.5]];portConstraint=eastwest;whiteSpace=wrap;html=1;" vertex="1" parent="yTjbBZnUIRRuOPXFyYUr-258">
          <mxGeometry y="104" width="240" height="26" as="geometry" />
        </mxCell>
        <mxCell id="yTjbBZnUIRRuOPXFyYUr-260" value="" style="line;strokeWidth=1;fillColor=none;align=left;verticalAlign=middle;spacingTop=-1;spacingLeft=3;spacingRight=3;rotatable=0;labelPosition=right;points=[];portConstraint=eastwest;strokeColor=inherit;" vertex="1" parent="yTjbBZnUIRRuOPXFyYUr-258">
          <mxGeometry y="130" width="240" height="8" as="geometry" />
        </mxCell>
        <mxCell id="yTjbBZnUIRRuOPXFyYUr-264" value="+ Add(item : int) : void" style="text;strokeColor=none;fillColor=none;align=left;verticalAlign=top;spacingLeft=4;spacingRight=4;overflow=hidden;rotatable=0;points=[[0,0.5],[1,0.5]];portConstraint=eastwest;whiteSpace=wrap;html=1;" vertex="1" parent="yTjbBZnUIRRuOPXFyYUr-258">
          <mxGeometry y="138" width="240" height="26" as="geometry" />
        </mxCell>
        <mxCell id="yTjbBZnUIRRuOPXFyYUr-261" value="+ Find(match : Predicate&amp;lt;int&amp;gt;) : int" style="text;strokeColor=none;fillColor=none;align=left;verticalAlign=top;spacingLeft=4;spacingRight=4;overflow=hidden;rotatable=0;points=[[0,0.5],[1,0.5]];portConstraint=eastwest;whiteSpace=wrap;html=1;" vertex="1" parent="yTjbBZnUIRRuOPXFyYUr-258">
          <mxGeometry y="164" width="240" height="26" as="geometry" />
        </mxCell>
        <mxCell id="yTjbBZnUIRRuOPXFyYUr-263" value="+ FindIndex(match : Predicate&amp;lt;int&amp;gt;) : int" style="text;strokeColor=none;fillColor=none;align=left;verticalAlign=top;spacingLeft=4;spacingRight=4;overflow=hidden;rotatable=0;points=[[0,0.5],[1,0.5]];portConstraint=eastwest;whiteSpace=wrap;html=1;" vertex="1" parent="yTjbBZnUIRRuOPXFyYUr-258">
          <mxGeometry y="190" width="240" height="26" as="geometry" />
        </mxCell>
        <mxCell id="yTjbBZnUIRRuOPXFyYUr-272" value="+ RemoveAt(index : int) : void" style="text;strokeColor=none;fillColor=none;align=left;verticalAlign=top;spacingLeft=4;spacingRight=4;overflow=hidden;rotatable=0;points=[[0,0.5],[1,0.5]];portConstraint=eastwest;whiteSpace=wrap;html=1;" vertex="1" parent="yTjbBZnUIRRuOPXFyYUr-258">
          <mxGeometry y="216" width="240" height="26" as="geometry" />
        </mxCell>
      </root>
    </mxGraphModel>
  </diagram>
</mxfile>
